<svg xmlns="http://www.w3.org/2000/svg" viewBox="0 0 273 179"><path d="M0,4A4,4,0,0,1,4,0H269a4,4,0,0,1,4,4V179H0Z" style="fill:#dfe9ff"/><path d="M148.5,112.2a13,13,0,0,1-3.3,2.3c-1,.5-1.9,1.2-3,1.7l-2,.8-3.3,1.3-2.6.9a14,14,0,0,1-2.8.6,27.3,27.3,0,0,1-7,.7h-7.9l-4.3-.4a11.3,11.3,0,0,1-1.8-.3l-2.4-.9-2.2-.8-3-1.3-1.3-.5-2.3-1.4-1.9-.9c-.8-.4-1.5-1-2.3-1.5L93,111.1l-2.7-2.5c-1.4-1.4-2.8-2.7-4-4.1s-1.9-2.5-2.8-3.8-1.1-1.5-1.5-2.3-.9-1.9-1.4-2.9a25.6,25.6,0,0,1-1.1-2.4c-.4-.9-.8-1.9-1.1-2.8L78,89.2c-.3-.9-.6-1.7-.8-2.5s0,.1-.1.3a17.5,17.5,0,0,0-.4-3.3c-.8-3.5-.3-7-.4-10.6a11.3,11.3,0,0,1,0-2.6c.1-.9.3-1.9.4-2.8s-.1-.6,0-.8l.6-2.6.3-.3c-.1-.2-.3-.4-.3-.5a7.9,7.9,0,0,1,.4-.9L78,62l.6-.2.9-1.1-.9-.6.8-2.1c.1.1.1.2.3.3l.6-.8c-.4-.3-.7-.4-.1-.9s.4-1,.6-1.6l.2-.3.3-.3c.5.1.7-.2.6-.6a5.6,5.6,0,0,1,1.4-3,38.8,38.8,0,0,1,2.3-3.3,24.2,24.2,0,0,1,3.1-3.3,37,37,0,0,1,2.8-2.8,21,21,0,0,1,3.3-2.6,10.1,10.1,0,0,0,1.6-1.3c.9-.6,1.9-1,3-1.6a7.5,7.5,0,0,1,1.5-.9l2.1-1,3.4-1.4,2.5-.9c.4-.1,1.1-.1,1.3-.3s1-.2,1.4-.3a7.6,7.6,0,0,0,1.6-.3c4.3-.9,8.6-.3,12.9-.4a9.5,9.5,0,0,1,2.9.2l3.6.7c.1-.1-.1,0,0,0l3.3,1.2,2.9.9,3.4,1.6,3.5,1.8,1.8,1.3a22.7,22.7,0,0,1,2.5,1.8c1.3,1.1,2.6,2.4,3.8,3.6s2.5,2.5,3.6,3.8a17.3,17.3,0,0,1,1.9,2.8,9.6,9.6,0,0,1,1.6,2.5c.4.9,1,1.8,1.4,2.6l1.6,3.4c.5,1.4.8,2.8,1.3,4.1a5.3,5.3,0,0,1,.4,1.8,1.1,1.1,0,0,1,.3-.6,18.6,18.6,0,0,0,.4,3.3c.9,4.4.3,8.9.4,13.3a31.3,31.3,0,0,1-.4,4.3c-.1.6-.3,1.3-.4,1.8a.4.4,0,0,1-.1-.3h-.1a9.7,9.7,0,0,1-1,3.3c-.3.8-.4,1.5-.7,2.2L162.7,95l-.9,1.9-.8,1.4-2.6,4-1.1,1.3-4,4.3-1,1c-.4.4-1.1.6-1.4,1.1A4.6,4.6,0,0,1,148.5,112.2Zm-6-8.6.2-.3.7-.5,1.9-1.7.6-.4a33,33,0,0,0,5.2-6,33.3,33.3,0,0,0,6-16.1,27.1,27.1,0,0,0-.4-9c-.5-2.4-1.3-4.7-2-7a17.4,17.4,0,0,0-1.1-2.5c-1.1-1.8-2.1-3.6-3.3-5.3a32.6,32.6,0,0,0-12.4-10.3,50.8,50.8,0,0,0-7.7-2.9A28.3,28.3,0,0,0,126,41a35.1,35.1,0,0,0-5.6-.3,31,31,0,0,0-8,1.2l-1.4.6a37.5,37.5,0,0,0-4.7,1.7,51.6,51.6,0,0,0-6.3,4l-2.3,1.9-2.1,2.1a32.6,32.6,0,0,0-2.9,3.6,30.4,30.4,0,0,0-3.6,6.6,31.9,31.9,0,0,0-2.5,11.7c0,1.7-.3,3.4.4,5.1a4.9,4.9,0,0,1,.1,2.1h.4a1.8,1.8,0,0,0-.1,1,33,33,0,0,0,7.4,15.1l3.1,3.2c1.8,1.3,3.4,2.8,5.2,4a40.7,40.7,0,0,0,5.5,2.8,22.2,22.2,0,0,0,6.8,1.9h.3a39.4,39.4,0,0,0,8.4.4l3.8-.5,1.4-.3,2.4-.6.6-.4c.3,0,.5.1.7,0l3.6-1.4.7-.3,1.7-.9.4-.2.3-.2h.2c0,.2-.1.4-.1.6a.7.7,0,0,0,.1.5c.1.1.4.1.4,0a1.1,1.1,0,0,0,.3-.6c-.1-.3-.3-.4-.4-.7l.2-.3.6-.4.4-.3.6-.3.4.4.9-.4A.6.6,0,0,1,142.5,103.6Zm-41.1,7.6-1.4-1.3C99.8,110.5,100.4,111.1,101.4,111.2Zm39.5-66.8a5.9,5.9,0,0,1-.4-.8h-.2a10.9,10.9,0,0,0-.1,1.8h.2A3.1,3.1,0,0,0,140.9,44.4ZM83.6,52.8h.2q.2-.6.3-1.5C83.5,51.5,83.5,51.5,83.6,52.8Zm5-.7,1.5.4C90.1,51.9,89.7,51.8,88.6,52.1Zm-8.5,7.2v.3h1.1c.1,0,.1-.2.1-.3l-.3-.2ZM107,108.8c-.4.4-.6.8.2,1.1A4.3,4.3,0,0,0,107,108.8Zm-.3-.1a.1.1,0,0,0-.1-.1c-.1,0-.1,0-.1.1h.2Z" style="fill:#3b73e9"/><path d="M190,132.9l3,2.8,3.1,3c.9.8.8.9.1,1.9a.4.4,0,0,1-.1-.3,1.5,1.5,0,0,1-.1-.7l-.9.9-.3-.2.5-.9c-.9.2-.9.2-.7,1.1a4.7,4.7,0,0,1,0,1.2l.8-.9.2.9a5.3,5.3,0,0,1-2.5,3.2c0-.6-.4-.4-.8-.4l-.6,1.8-.4.3c-.4-.3-.4-.2-.5.4h-.1c-.9,1.2-2.3,1-3.5,1.5a1.3,1.3,0,0,1-1.6-.4l-9.2-8.8-5.6-5.3-2.8-2.7.4-.4,6.7-7.9,1.9-2.3,2.5,2.3,4.9,4.8,4.8,4.6c.6,0,.7.2.8.4l-1.5-.3v.3c.5,0,1,.6,1.5,0Zm4.1,8.3h-.5c-.4-.3-.4,0-.4.3s-.9.2-.8,1l.8-1h.6c.2,0,.2-.2.3-.3s.4-.3.6-.5l-.3-.2A2.1,2.1,0,0,1,194.1,141.2Zm-6.6-8h.1c0-.3.1-.4.1-.7l-.3-.4-.3.3a7.9,7.9,0,0,0,.4.9Zm-2.4,11.9a4.5,4.5,0,0,0-.2-.8l-.4.3Zm5.9.9.3.2.4-.4h-.3c-.2,0-.3.2-.4.3Zm2.7-6.1-.2.3.4.4c.1-.1.2-.3.1-.3l-.3-.4Zm-4.6-3.2c0,.1.1.1.1.2l.9-.4v-.2Zm-.1-1v.2h.6c0-.1.1-.2.1-.3Zm-4.9,8.7h.1V144H184a.4.4,0,0,1,.1.3Zm7.4.7h.1a.4.4,0,0,0,.1-.3h-.1v.3Z" style="fill:#17bd97"/><path d="M177.4,120.7l-1.9,2.3-6.7,7.9-.4.4-1.4-1.2-8-7.7-3.6-3.4-1.8-1.9a1.4,1.4,0,0,1-.2-.6c-.1-.2,0-.4,0-.6h1l-.4-.6,1.6-2.6,1.3,1h.3l-.6-1.2c-.1-.3-.3-.6-.2-.8l1.3-1.8c.3.3.5.5.8.5s.4-.3.3-.6a.8.8,0,0,1,.2-.4l.9-.8c.1.1.3.1.4.3l.2-.2-1.1-1.6.9-.4.6.7.2-1.4.4.6.3-.9,3,2.8,8.2,7.9,4.4,4.4Zm-22.8-4.4Zm1.3-1.8h.7l-.7-1.1-.9,1.8,1,1.8,1.1-.9c-.8-.4-1.3-.9-1.2-1.7Zm1.5.3.6.3a.7.7,0,0,0-.1-1.1l-1.1.2.4,1.1h.2v-.5Zm-.3-3.1-.3-.4,1.3-.4c-.3,0-.6-.1-.7,0s-.2.5-.3.8Zm-2.3,4.2h.1c-.1,0-.1,0-.1.1Z" style="fill:#3870e6"/><path d="M160.3,106l-.9.4,1.9,2.9-.2.2a16.7,16.7,0,0,1-1.2-1.6c1.2,1.6.2,1.9-.1,2.1s-.3.3-.2.4.1.7-.3.6-.4-.3-.8-.5a14,14,0,0,0-1.3,1.8c-.1.2.1.5.2.8l.6,1.2h-.3l-1.3-1-1.6,2.6a1.5,1.5,0,0,1,.4.6h-1c0,.2-.1.4,0,.6l.2.6-5.8-6.1a7.2,7.2,0,0,0,2.5-1.8,6.7,6.7,0,0,1,1.4-1.1c1.3-1-.1.4,1-1l4-4.3h1.6l.2.3-.9.7c.1-.3.1-.4.2-.5h-.7l-.3,1.2,1.8-.3-.4.8a2,2,0,0,1,1.3.1Z" style="fill:#2a51a5"/><path d="M160.3,106.6l-1.3-.5c.1-.1.1-.3.4-.8l-1.8.3.3-1.2h.7c-.1.1-.1.3-.2.5l.9-.7-.2-.3h-1.6l1.1-1.3,3.2,3-.3.9-.4-.6-.2,1.4C160.6,107.1,160.4,106.8,160.3,106.6Zm.6-1a.1.1,0,1,0,.2,0h-.2Z" style="fill:#3f62ad"/><path d="M195.6,140.8l-.8.9a4.7,4.7,0,0,0,0-1.2c-.3-.9-.3-.9.7-1.1l-.5.9.3.2.9-.9a1.5,1.5,0,0,0,.1.7v.3l-.6,1.1a5.1,5.1,0,0,1-.2-.9l.3-.3h-.1l-.2.4Z" style="fill:#39c19d"/><path d="M79,59.9a2.4,2.4,0,0,0,.9.6L79,61.6l-.6.2a1.3,1.3,0,0,1,.1-.6h.1C78.7,60.7,78.9,60.3,79,59.9Z" style="fill:#6692ed"/><path d="M192,146.2l.6-1.8c.4-.1.8-.2.8.4Z" style="fill:#39c19d"/><path d="M82.2,53.7c.1.4-.1.7-.6.6Z" style="fill:#6692ed"/><path d="M191,146.9c.1-.6.1-.6.5-.4A1,1,0,0,1,191,146.9Z" style="fill:#39c19d"/><path d="M81.3,54.6l-.2.3Z" style="fill:#6692ed"/><path d="M78.6,61.2h0Z" style="fill:#3b73e9"/><path d="M190.9,147h0Z" style="fill:#39c19d"/><path d="M97.9,100.8l-3.1-3.2a33,33,0,0,1-7.4-15.1c-.1-.3.1-.6.1-1h-.4a4.8,4.8,0,0,0-.1-2.1,14.7,14.7,0,0,1-.4-5.1,33.1,33.1,0,0,1,2.5-11.7,30,30,0,0,1,3.6-6.6,25.4,25.4,0,0,1,2.9-3.6l2.1-2.1a19.2,19.2,0,0,1,2.3-1.9c2.1-1.4,4.1-2.8,6.3-4a32.6,32.6,0,0,1,4.7-1.7l1.4-.6a31,31,0,0,1,8-1.2,52.5,52.5,0,0,1,5.6.3,14.7,14.7,0,0,1,4.2.6,55.2,55.2,0,0,1,7.7,2.9,32.6,32.6,0,0,1,12.4,10.3c1.2,1.6,2.2,3.5,3.3,5.3a18.9,18.9,0,0,1,1.1,2.5,56,56,0,0,1,2,7,30.3,30.3,0,0,1,.4,9,34.1,34.1,0,0,1-5.8,16.1,29.9,29.9,0,0,1-5.2,6l-.6.4c-.1-.3-.3-.5-.4-.8l-1.6-6a16,16,0,0,0-1-2.3l-.6-1.3a.4.4,0,0,1-.1-.3c-.3-.4-.4-.9-.7-1.3L139.8,87c-.1-.3-.3-.5-.4-.8l-.3-.4-.9-1.6a18.3,18.3,0,0,0-1.3-1.6l-.9-.9-1.1-.7-2.1-2-.9-.6v-.2a13.5,13.5,0,0,0,3.1-4c.1-.3.3-.5.4-.8s.8-2.3,1.3-3.5a.6.6,0,0,0,.1-.4l.2-3.2c0-.6.1-1.1.1-1.7s-.2-.5-.3-.8a12.5,12.5,0,0,0-.3-1.9,15.1,15.1,0,0,0-5.9-8.7l-1.5-.9c-.4-.4-.8-.8-1.3-.5a3,3,0,0,0-1.1-.6c-2.3-1-4.8-.9-7.3-.8a13.4,13.4,0,0,0-2.7.7l-.4.2-.8.3c-.2.1-.4.1-.6.3h-.3a14.8,14.8,0,0,0-6.8,6.5,13.8,13.8,0,0,0-1.9,7.9,24.2,24.2,0,0,0,.3,2.5c.2.6.1,1.4.3,2.1a13.9,13.9,0,0,0,.6,1.3c-.3.3.3.5.3.8.3,1.8,1.6,2.9,2.6,4.2a16.2,16.2,0,0,0,1.8,1.9l-.9.9-.2.2-1.4,1.1c-.1.1-.3.2-.3.3l-.6.4-1.3.9-1.6,1.2-2.1,2.3c.4.4.9.8.1,1.2h0a1.5,1.5,0,0,1,.1-.6l-1.3.9c-.3.3-.3.8-.6,1.1a21.4,21.4,0,0,0-2.5,5.3c-.4,1.4-.8,2.8-1.1,4.3s-.1.8-.2,1.2a1.3,1.3,0,0,0-.1.6C98,100.4,97.9,100.6,97.9,100.8Z" style="fill:#eaf0fc"/><path d="M141.9,90.3l.6,1.4v1.2l-2.5.7a1.3,1.3,0,0,0-.1-.6h-.3c.1.2.3.4.3.6l-.6,1.2h-.3l.4-1.1-1.6-.3-.2-.6h-.2l.2,1h1.1c0,.1.1.1.1.3l-1.1.7c.8.1-.1.5.1.7h.4c0,.3,0,.6-.4.6h-.3c0,.1-.1.1-.1.2h.4c-.4.3-.8.6-1.3.3s-.4.3-.8.6h1.3c.1,1.3.3,1.7,1.5,2.1a6.9,6.9,0,0,0,.3-.8c.1,0,.1,0,.2.2s.1.4.1.6h.6v.2l-1.5,1.6c-.3-1.7-1.5-2.3-3.1-3a2,2,0,0,0,.1.7c.1.5.6,1.1-.1,1.5s-.1.3,0,.3h.3c.4-.1,1-.1,1.1-.7l.5-.3a5.7,5.7,0,0,1-.3,1.5l-.6.4v.2h.6l.2.8-1.3.5c.1.6,0,.9-.7.8h-.6c-.3-.4-.6-.1-.8.1l-.9.7v-.7l-.8.4-.3,1.9h.7c-.8.3-1.2.6-1,1.4h.1l1.1-.9.2.9.6-.7-1.2-2h.2l1,1c.3-.1.6-.5.9-.7h.6a1.5,1.5,0,0,0,.1-.6h.4c.1.3,0,.8.6.8s.1.5.2.7a2.2,2.2,0,0,1,.1.8l-3.6,1.4h-.7l-.4-.3h.3l.5-.2v-.2l-.4.4h-.3a1.3,1.3,0,0,0-.1.6l-2.4.7c-.1-.3-.7-.4-.1-.8s-.1-.3-.1-.4l-.4.2c-.2.1-.3.3-.6.6s-.1.5-.1.7l-3.8.5a39.4,39.4,0,0,1-8.4-.4h-.3c.3-.1.6,0,.3-.4a.4.4,0,0,1,0-.5c.3-.6,0-.7-.5-.7h0v-1.6h-.3l-.8-.4c-.2-.1-.3-.3-.6-.7a12.1,12.1,0,0,1,.5,1.4h-.1c.7-.1.4.5.5.8a4.8,4.8,0,0,1,.4,1.8l.3.3a26.6,26.6,0,0,1-6.8-2,28.9,28.9,0,0,1-5.5-2.9,49.2,49.2,0,0,1-5.2-4.1c.1-.2.1-.4.2-.6l.6.3c.9-.2,1.9.5,2.8-.3h.1c0,.1.1.1.1.2h.1v-.2l-.6-.9h0l-.5.4-.3.5-.4-.4a1.7,1.7,0,0,1-.1-.7l.9-.4a.1.1,0,0,0-.1-.1h-.5c-.2-.5-.3-.8-.8-.6s.1.7.1.9.3.7.6.9l-1.1.3L98,100c.1-.4.1-.8.2-1.2s.7-3,1.1-4.5a22,22,0,0,1,2.5-5.4c.3-.3.3-.8.6-1.2a4.3,4.3,0,0,1,1.3-.9,3.5,3.5,0,0,1-.1.6h0c.8-.4.4-.8-.1-1.2l2.1-2.4c.3.2.6.7.8.6s1,.1,1.3.8.1-.6.2-1,.9.5.6,1a.1.1,0,0,1-.1-.1.1.1,0,0,1,.1.1c0,.8.5.1.6.3l.6-1.1.6.2.4-.2.4.4a4.7,4.7,0,0,1,.6.9l-.4.6h.8c0-.2-.1-.3-.1-.5h.9c0,.3-.1.4-.1.6h.1a.6.6,0,0,0,.1-.4l.6.5h.2c.5-.8.5-.7,1.2-.1h.8c.4,0,1-.1,1.1.1s.8.3,1.1.1.4.6.8.1h.3v.9l.9-.5c.3.1.3.1.1.6l.8.2a6.4,6.4,0,0,1,.2-.9,1,1,0,0,1,.8-.1,3.6,3.6,0,0,1,.9.5l.5-.7v.3a6,6,0,0,1,.8.8l.4-1.1.8.5a.6.6,0,0,0,.1-.4l1.1.6-.3-.6a.6.6,0,0,1,.5.2c.3.1.6.4.7.3s1-.2,1.4-.1a2.8,2.8,0,0,0,.1-.9l.6.7.4-.9.4.9.9-.4-.3-.5v-.4c.3-.2.9-.3.3-.8h0l-.8-.7c.4-.5.9-.4,1.2.4s.4.6.6.1h.3l.4.4c-.4.1-.8.8-1.3.3s-.1.4-.2.6l1.5.2h.1l.2.3.3.2h-.6c.6.6,1.1.6,1.8,0l-.3,1.2.8-.5h.3l-1.1,1.8.6,1.1h1.3c.2,1.1.9.8,1.6.8v1.1l-.4.3v-.3q.3-.6-.3-.6h-.8l-.4-.5-.2.4.6.3v.3c.2.6.6.4,1.1.4l.9.7c0-.6-.1-.9-.1-1.3h.8c0,.9,0,.9.7.8v-1h-.7c-.1-.4-.3-.8-.4-1.2l-.6.4H138l-.4-.3-.5-.3h.4v-.9h-.7a2.3,2.3,0,0,1,.1-.4c-.8-.2-.5-.6-.4-1a11.7,11.7,0,0,0-.5-1.1c0-.1-.2,0-.3,0s.6.1.5-.1-.6-.8-.2-1.2-.2-.6.1-.9v-.2l.6-1.6,1.4.7.9,1.7c-.9.2-.8-.6-1.1-1.4a2,2,0,0,0-.1.7h0l.2.4c.2.6.5.6,1.1.2l.3.4L138.3,87c.7.4,1.1,0,1.4-.4l1.3,2.3c.3.4.4.9.7,1.3l-.4.2h.6Zm-6,15.9Zm4.7-15.6h0c0,.6.3.5.9.3l-.6-.3h-.3a1.3,1.3,0,0,1-.1-.6h-.1a10.4,10.4,0,0,0-.4,1h.6Zm-9.6,9.5c0,.1.1.1.1.2H131c.1-.9-.8-.3-1.1-.7l-.4.3.5.6a1.6,1.6,0,0,1,1-.2Zm-5.5,7.2h0l-1.1-.3.4,1.1c.1.3.1.7.2,1.1l.7-1.1C125.8,107.8,124.7,107.8,125.5,107.3Zm12.6-19.6c0,.1.1.4.1.5h.2c-.2,0-.2-.1-.3-.4l-.3-1.8-.7.3-.3-.7C136.4,86.4,137,87.3,138.1,87.7Zm-27.9,13.8h0l-.3,1.3h-.2a.4.4,0,0,0,.1-.3l1-.5c.3-.1.4-.4.6-.4s.3.4.4.7l.6-.9c-.7.4-.6-.1-.6-.6H111a4.3,4.3,0,0,1-.1.5Zm2.3,5.4h.7c-.2-1.2.3-2.4-.8-3.2a.9.9,0,0,0,0,1.3l.3.5c-.6.5-.2,1-.2,1.3Zm-6.7-17.4c.4-.5.3-.8-.8-.9a3.4,3.4,0,0,1,.1.9c.1.1.1.3.3.3s.4.6.1.9l-.7-.7-.7-1.1.6-.8-1.8-.3v.3l.8.5-.3.8h0l.6.3c.8.4.8,1.1.2,1.9l.7-.3,1.1.6c.1.1.1.3.2.5h-.8a4.2,4.2,0,0,0,.4,1c-.1.1-.1.3-.2.4l-.6.9,1,.5c0-.2.1-.2.1-.2l-.6-.5,1.1-.6,1.3.3-.8.6c1.8-.1,1-1.3,1.2-2.1l-1.7-.4a.6.6,0,0,0,.1-.4h.4V90.5h0l-.8-.5Zm2.6,7.9a3.5,3.5,0,0,1,.5.8h.3c0-.3-.1-.6-.1-1l.4-.3c-.3-.3-.4-.6-.8-.7h-1.5c.1-.3.1-.6.2-.8a3.3,3.3,0,0,0-1-.6,1.1,1.1,0,0,0,.8,1.4l-.7.6Zm25.1-.6.9,1.2.4.2c.1-.2.2-.4.1-.5a4.1,4.1,0,0,0-.5-.9l.6-.4C134.2,96.1,133.7,96.3,133.5,96.8Zm-23.2,1.8c.1-.4.1-.7.2-1s-.6-.3-1.1,1.5Zm-1.8,5.9-.3-.9-.7.9c1.2.4,1.2.4,1.4-.1S108.6,104.4,108.5,104.5ZM139.6,90c.3-.5.4-.9.7-1.3h-.1l-1,.6.3.7Zm-14.1,6.6h-.3l.9.7V95.7l-.2-.2A3,3,0,0,1,125.5,96.6Zm5.8-2,.2-.3-1.7-.9a.4.4,0,0,0-.1.3Zm-17.2,13.9c.1-.1.1-.1.1-.2l-.2-.6h-1.1v.3Zm2.7-18.2,1.7-.7-1.3-.2A7.9,7.9,0,0,0,116.8,90.3Zm8.3-.2,1.6-.3C125.3,89.6,125.3,89.6,125.1,90.1Zm-16.3-3.5v.2c.9.4.9.4,1.2-.2Zm19.3,2.7H128a3.2,3.2,0,0,0-.3.9c0,.1.2.3.3.4s.3-.3.3-.4A1.5,1.5,0,0,1,128.1,89.3ZM109,94h-.1a1.3,1.3,0,0,1,.1.6,4.3,4.3,0,0,0-.1.5h.3c.1-.3.3-.5.2-.6S109.2,94.2,109,94Zm6.2-3.8-.8-.3.3,1.1h.2Zm18.4,17.1c0,.1.1.1.1.2l.5-.2a2.2,2.2,0,0,0,.1-.8h-.2Zm-27.2-9.7-.3.6c.1.2.4.3.6.4v-.2A1.8,1.8,0,0,0,106.4,97.6Zm26.4,4.2h.2c.1-.4.1-.7.2-1.2a1.7,1.7,0,0,1-.7.4A3.4,3.4,0,0,0,132.8,101.8ZM110.5,84.5c-.1-.1-.2-.1-.3-.3a2.8,2.8,0,0,1-.5.8l.2.2ZM131.7,100h-.3l.5.9h.3A9,9,0,0,1,131.7,100Zm6.5-11v.2h.5v-.2Zm-.8-4a.4.4,0,0,0-.1.3c0,.1.1.1.2.2l.2-.3Zm-.7-.3c.1.1.2.2.3.1a.2.2,0,0,0,.2-.2l-.2-.2Zm3,2.7h-.1a.1.1,0,0,0-.1.1v0Zm-3.5,4c0-.1,0-.1.1-.1h-.1Zm2.9-1.5h0Zm-29.4,4.3Zm-7.5-5.8h.2a.1.1,0,0,0-.1-.1Zm37.9-.7Zm-5.8,18.5h0c-.1-.1-.1,0,0,0Z" style="fill:#fdc532"/><path d="M134.5,104.1a.7.7,0,0,1,.6-.1c.7.1.8-.3.7-.8l1.3-.5-.2-.7.3-.2h-.1l-.2.3h-.6c0-.1,0-.1-.1-.2l.6-.4.3-1.5-.5.3c-.2.6-.8.5-1.1.7h-.3c-.1-.1-.1-.3,0-.3s.1-1,.1-1.5a1.1,1.1,0,0,0-.1-.6c1.5.6,2.8,1.2,3.1,2.9l1.5-1.6v-.2h-.6c0-.2-.1-.4-.1-.6h-.2l-.3.7c-1.2-.4-1.4-.7-1.5-2h-1.3c.3-.3.6-.6.8-.6s.9-.1,1.3-.4.4-.3.4-.6l.4-.4,1.1.3V96l-.6.5.5.4v.4h-1.4c0-.2-.1-.4-.1-.6h-.3l.4.4c.3.4.5.7.9.1h.4v.3a1.3,1.3,0,0,0-.1.6l.9.5.4.6.4.3c-.4.6-.8.1-1.2,0s.9.8,1.9.9V99.3l1.1.9.3.6H142l-.3,1.8-.9.4v-.3h-.1a.4.4,0,0,1,.1.3v1.6l-.6.4c0-.5.4-1,0-1.5h.1c0-.1.1-.3.1-.4h-.1v.4c-.6,0-.8.3-.8.9a3.6,3.6,0,0,0,.2,1,.1.1,0,0,0-.1.1l-.3.2-.4.2-.5-.3-.8-.4-.6-.7-.9.6c.1.1.1.1.1.2h.6l.3,1.4-.7.3a2.2,2.2,0,0,1-.1-.8c-.1-.2-.1-.6-.2-.6s-.5-.5-.6-.8-.1-.1-.1-.2l-.2.2h-.1c-.3-.2-.4-.5-.6-.7Zm4.2-1.6-.8.3c-.4.1-.8.2-.7.7l.3.4.2-.7.3.2-.4,1.6.9-.2v-.6h.6l.9-1.1a4.6,4.6,0,0,0-1.3-.4Zm-.9-.9-.3.3.3.2c.1,0,.2-.2.2-.3S138,101.7,137.8,101.6Zm2.9.8h.3l-.3-.6h-.2A1.4,1.4,0,0,0,140.7,102.4Zm-1.9-6.7h-.2a.1.1,0,0,0-.1.1h.3Zm1.5,5h-.1a.4.4,0,0,1,.1.3h.1A.5.5,0,0,1,140.3,100.7Zm-2.9-.3a.1.1,0,0,1-.1-.1h0C137.4,100.6,137.4,100.5,137.4,100.4Zm-.1-3.4h0Zm-1.2,2.9h.2a.1.1,0,0,1-.1-.1A.1.1,0,0,0,136.1,99.9Zm-.3,4.6h0Zm3.3-.2h-.4a.1.1,0,0,0,.1.1Zm-4,0h0Zm.5-5.4h0Z" style="fill:#fec42f"/><path d="M139.6,95.5l-1.1-.3h.1l-.5.5h-.4c-.3-.2.8-.6-.1-.6l1.1-.7c0-.1-.1-.1-.1-.3h-1.1c-.1-.3-.1-.6-.2-1h.2l.2.6h0l1.6.3c-.1.4-.3.8-.4,1.1h.3l.6-1.2,2.5-.7a4.5,4.5,0,0,0,.1-1.2,22.9,22.9,0,0,1,1,2.3l1.6,6a5.9,5.9,0,0,0,.4.8l-1.9,1.7-.6-1.3,1-.4a1.4,1.4,0,0,1-.2-.6c.1-.6-.3-.6-.7-.4l-1.1-.9v1.3c-1.1-.1-1.8-.5-1.9-.9s.8.6,1.2,0v-.3l.4-.3h.7v-.3h-.6c-.3.1-.1-.8-.6-.3l-.6-.3h-.1l-.8-.3v-.3l.4-.2-.4-.4h0l-.5-.4.6-.5a5.6,5.6,0,0,0-.1.7l.7-.8.6.3h0c.1-.3.3-.5.3-.8s-.9-.8-1.2-.6l.2.8C140,95.5,139.8,95.5,139.6,95.5Z" style="fill:#fdc738"/><path d="M143,100.3c.4-.3.7-.3.7.4a1.4,1.4,0,0,0,.2.6l-1,.4a7.5,7.5,0,0,1,.6,1.3l-.7.5-.3-.3v-.3l.3-.4c0-.2-.3-.3-.4-.6l-.2,1h-.3l.3-1.8h1.2c0,.1.1.2.1.3s.1,0,.1-.1l-.2-.3C143.2,100.7,143,100.6,143,100.3Zm-.5,1.3v-.2h-.1a.1.1,0,0,0-.1.1C142.3,101.4,142.4,101.5,142.5,101.6Z" style="fill:#facc53"/><path d="M137.1,106.8c-.1-.4-.2-.8-.3-1.4h-.6c-.1-.1-.1-.1-.1-.2l.9-.6.6.7.8.4.5.3A10.1,10.1,0,0,0,137.1,106.8Zm4.6-4.2h.6v.6c-.7,0-1.2.2-1,1l-.4.3V103A2,2,0,0,0,141.7,102.6Zm-1.4.9c.4.5,0,1,0,1.5l-.2.3h-.4l-.2-1C139.5,103.8,139.6,103.5,140.3,103.5Z" style="fill:#fdc532"/><path d="M127.8,109.6V109l.6-.6.4-.2v.4c-.6.3,0,.4.1.7Z" style="fill:#facc53"/><path d="M139.8,105.4h.3c.1.3.4.4.4.7s-.1.4-.3.6-.4.1-.4,0a.7.7,0,0,1-.1-.5C139.7,105.8,139.8,105.6,139.8,105.4Zm-38.4,5.8c-1-.1-1.6-.6-1.4-1.3Zm39.5-66.8a5.4,5.4,0,0,0-.5,1.1h-.2V43.7h.2A2.5,2.5,0,0,1,140.9,44.4ZM83.6,52.8c-.1-1.3-.1-1.3.5-1.4l-.3,1.5Z" style="fill:#6692ed"/><path d="M141.3,104.3c-.1-.8.4-1,1-1v.3l-.3.2h-.3v.3h-.1A.7.7,0,0,1,141.3,104.3Z" style="fill:#fec42f"/><path d="M88.6,52.1c1.1-.4,1.5-.2,1.5.4Zm53.5,51.7.3-.2h.1l.6.4-.9.4-.4-.4h.3Zm-62-44.5.9-.2.3.2a1,1,0,0,1-.1.3H80.1ZM107,108.8l.2,1.1C106.5,109.7,106.7,109.3,107,108.8Z" style="fill:#6692ed"/><path d="M131.5,108.8a1.3,1.3,0,0,0,.1-.6h0l.4.3Z" style="fill:#facc53"/><path d="M106.7,108.7h-.2a.1.1,0,0,0,.1-.1C106.7,108.5,106.7,108.6,106.7,108.7Z" style="fill:#6692ed"/><path d="M142.5,103.6h-.1v-.3h.4Z" style="fill:#facc53"/><path d="M139.2,105.6l.3-.2Z" style="fill:#fdc532"/><path d="M190,132.9c-.5.6-1,0-1.5.1v-.3Zm-2.5.3c-.1-.3-.3-.5-.3-.8l.3-.3.3.4a1.7,1.7,0,0,1-.1.7Zm5.7,8.1-.8,1C192.2,141.5,192.7,141.5,193.2,141.3Zm-8.1,3.8-.6-.5.4-.3A4.5,4.5,0,0,0,185.1,145.1Z" style="fill:#39c19d"/><path d="M194.1,141.2l-.3.3h-.6c0-.3,0-.6.4-.3ZM191,146l.3-.4h.3l-.4.4Zm2.7-6.1.4.3v.3l-.4-.4v-.2Zm-4.6-3.2.9-.4v.2l-.9.4Z" style="fill:#39c19d"/><path d="M194.1,141.2c.1-.3.3-.4.4-.7l.3.2a1.8,1.8,0,0,0-.7.5Zm-5.1-5.5h.6v.3h-.6C188.9,135.8,188.9,135.7,189,135.7Zm-4.9,8.7a.6.6,0,0,1-.1-.4h.1c0,.2.1.3,0,.5Zm7.4.7.2-.2h.1a.4.4,0,0,0-.1.3l-.2-.2Z" style="fill:#39c19d"/><path d="M155.9,114.5c-.1.8.4,1.3,1.1,1.7l-1.1.9-1-1.8.9-1.8.7,1.1Zm1.5.3v.5h-.2a7.6,7.6,0,0,1-.4-1.1l1.1-.2c.3.2.5.5.1,1.1Zm-.3-3.1a3.2,3.2,0,0,1,.3-.9h.7l-1.3.4Zm-2.3,4.2h0c0-.1,0-.1.1-.1a.1.1,0,0,1-.1.1Zm-.2.4Z" style="fill:#2a51a5"/><path d="M154.6,116.3Z" style="fill:#2a51a5"/><path d="M160.9,105.6h0c.1,0,.1,0,.1.1h-.1c.1-.1.1-.2,0-.2Z" style="fill:#3870e6"/><path d="M195.6,140.8a.6.6,0,0,0,.1-.4h.1l-.2.3Z" style="fill:#17bd97"/><path d="M136.8,63.7c.1.3.3.5.3.8v1.7h0l-.2,3.2h-.5v.2l.5.4-1.3,3.5c-.5-.3-.9-.1-1.1.8h.8a14.9,14.9,0,0,1-3.1,4c-.1.1,0,.1,0,.2l-1.9,1.4-.5.2-1.2.6-2.3.9h-.8a7.7,7.7,0,0,1-3.7.4h-3l-4.5-1.6-.6-.4-.9-.5h-.3l-.5-.3a16.2,16.2,0,0,1-1.8-1.9c-1-1.3-2.3-2.5-2.6-4.2s-.6-.6-.3-.8a3.1,3.1,0,0,1-.6-1.3c-.2-.7-.1-1.5-.3-2.1a10.1,10.1,0,0,1-.3-2.5,14.5,14.5,0,0,1,1.9-7.9,15.8,15.8,0,0,1,6.8-6.5h.3l.7.3c0-.1.1-.1.1-.2l-.3-.3.8-.3a1.3,1.3,0,0,1-.1.6l1.2,1.4.3-.7L116.5,51a13.4,13.4,0,0,1,2.7-.7c2.5-.1,5-.2,7.3.8a6,6,0,0,1,1.1.6c.5-.3.9.2,1.3.5s-.4.2-.4.3.1.3.2.4l.3.4c-.1.5.2.5.5.5h0a4.3,4.3,0,0,0,.4.7c.1-.3.3-.4.4-.7a2.2,2.2,0,0,0,.1-.8,14.8,14.8,0,0,1,5.9,8.7,7.3,7.3,0,0,1,.5,2l-.6.4-.7.2a4.7,4.7,0,0,1-.6-.9l-.6.9h.2q.5-.6.6,0a.6.6,0,0,0,.8.3l.6-.4c-.1-.1-.3-.1-.3-.2Zm-20.5-8Zm2.6,2.6a.4.4,0,0,0,.1-.3c.3-.8-.4-.9-.6-1.6l-.4.9h-.7a13.3,13.3,0,0,1,.6,1.2l.7-.5v.6C118.7,58.4,118.8,58.3,118.9,58.3Zm0-5.6-.3.2h.1c0-.2.1-.3.2-.3h.2a.1.1,0,0,0-.1-.1A.3.3,0,0,1,118.9,52.7Zm-2.2.7c-.5-.1-.2.3-.3.4l-1.1.5c0,.1.1.2.1.3h1.3l.2.2.3.9-.7.6,1.1.6.4-.6h.4c-.1-.1-.1-.1-.1-.2l-.3.3-.3-.4a.9.9,0,0,0,.1-.5l1.3.8c-.1.1-.2.3-.3.3l.6.8a.1.1,0,0,0-.1.1v.2c0-.1.1-.1.1-.2s.6-.3.5-.8l-.3-1.4c0-.1-.1-.1-.3-.1s-.1.4-.3.6l-1.3-.8v-.2l.4-.8-.6.3-.3-.3c.1-.3.2-.8-.4-.5Zm15.4,2.9c-.1-.1-.1-.1-.1-.2h.1l.6,1.3.4-1.1ZM115.6,68.1h-1.1v.6a2.8,2.8,0,0,0,1.1-.5.9.9,0,0,0-.1.5c0,.2-.1.6.1.6h.7V69l-.6-.4.8-.3V68Zm-6-7.3c1.6-.3,2-.5,2.1-1a3.8,3.8,0,0,0-1,.3l-1.1.7-.2.2h.1A.4.4,0,0,0,109.6,60.8Zm6,8.9-.6-.4a1.7,1.7,0,0,1,.1.7l.5-.3.8,1.2h-.8a1.3,1.3,0,0,1-.1.6h.2l.6-.6a4.3,4.3,0,0,1,.4.7l.2-.5-.8-1.4Zm-2.8-13.9.3.6c-.8.3-.8.3-.8.8s1-.9,1.4-1.6l-1.1-.5v-.5h-.2c-.1.4-.3.8-.4,1.3A1.1,1.1,0,0,0,112.8,55.8Zm22.1,4.6a.1.1,0,0,0-.1-.1l-1.5-.2c-.3.6.9.6.4,1.3s.8.8-.1,1.2h1.8c.3-.3.1-.6-.3-.8s-.4,0-.7.1a10.4,10.4,0,0,1-.4-1.3Zm-7.6,15.1h.3a2.5,2.5,0,0,1,.1-.9c.1-.3.4-.5.8-.9l-1.3.5A4.9,4.9,0,0,1,127.3,75.5Zm-13.4-14c0,.1-.1.2-.1.3l2.3.7c-.1-.3-.1-.5-.2-.6Zm9.4,1.4c.4-.6-.1-1.4-1-1.5Zm3.8,10.7v-.3a3.5,3.5,0,0,0-1.1.3c-.1,0,.1.5.1.9Zm-2.8-11.5h.3l-.4-1.3-.6.2Zm9-2.2c-.2-.3-.4-.5-.4-.6l-1.2.7a.1.1,0,0,0,.1.1Zm-7.5,9.2a3.1,3.1,0,0,1-.1-.9l-.4-.3h-.4c-.1.1-.1.3,0,.3Zm-2.7-4.9h.6c.1,0,.1-.3.1-.4a2.9,2.9,0,0,0-.8-.7A4.1,4.1,0,0,1,123.1,64.2Zm8-7.2v-.3l-.5-.3-.4.3.4.4C130.7,57.2,130.9,57,131.1,57Zm5.5,11.3-1.1-.8a2.5,2.5,0,0,0,.4.9C136,68.6,136.4,68.4,136.6,68.3Zm-4.4-10.2a.6.6,0,0,1,.1-.4H131V58ZM127,75.7c-.3-1.1-.3-1.1-.9-.6A1.8,1.8,0,0,0,127,75.7Zm-11.9-23,.9.5C116.1,52.4,115.8,52.3,115.1,52.7ZM126,71.5l-.6.9a1.6,1.6,0,0,0,.9-.3C126.3,72.2,126.1,71.8,126,71.5Zm8.1-7.3.3-1.2C133.7,63.1,133.6,63.4,134.1,64.2Zm-1,3.5,1.1.3-.3-.8ZM118.8,54h.1l-.5-.4-.2.2C118.2,53.6,118.8,54,118.8,54Zm7.3,15.4v-.2h-.4v.3Zm-8.3,1.9c.1-.1.1-.1.1-.2v0C117.7,71.2,117.7,71.3,117.8,71.3Zm1-18.1Zm-.1,1.2Zm15.9,13.3h0Zm-19.1,2.6Z" style="fill:#fec42f"/><path d="M111.9,78.8l.5.3-.7.6,1.1,1.2c.1.3.1.5-.3.4h-.3l-.2-.2v-.4c-.2.3-.9.3-.4.9s-.9.1-.4.6.2,1-.1,1.4h-.2a5.5,5.5,0,0,0-.8-.6l.6-.2c-.3-.2-.8-.5-.8-.6s-.3-.9-.4-1.4l1.4-1.1h.4l-.2-.2Zm-1.5,3.4v.3l.5.2c0-.1.1-.1.1-.3Z" style="fill:#cba132"/><path d="M130,79.7l1.9-1.4.9.6c-.1.3-.1.6-.2.7s-.3.9,0,1.3l-.3.3h-.1a4.3,4.3,0,0,0-.4-.7l-.8.3.4.3-.3.3-.9-.7A5.1,5.1,0,0,1,130,79.7Z" style="fill:#d6b45c"/><path d="M109.8,84.2l-.6,1.1c-.1-.1-.6.6-.6-.3h0c.4-.4.4-.4-.6-.9l-.2.9c-.3-.7-.7-1-1.3-.8s-.5-.3-.8-.5l1.6-1.2h.1a.6.6,0,0,0-.1.4h.7c.2.8.8.8,1.4.8A.8.8,0,0,0,109.8,84.2Z" style="fill:#d3a732"/><path d="M132.5,80.9c-.4-.4-.6-.8,0-1.3s.1-.4.2-.7l2.1,2h-.3l-.4.4h-.2c-.1.1-.3.1-.4.3a.8.8,0,0,1-.2-.4,2.2,2.2,0,0,1,.1-.8Z" style="fill:#cba132"/><path d="M109.8,84.2l-.4-.3-.3-.9-.5-1.3.6-.4.3-.3c.1.4.7.8.4,1.4s.5.4.8.6l-.6.2.8.6c-.5.2-.1.3,0,.5l-.4.2Z" style="fill:#c09526"/><path d="M130.6,53.1a2.2,2.2,0,0,1-.1.8,4.3,4.3,0,0,1-.4.7,4.3,4.3,0,0,0-.4-.7h0c-.3,0-.6,0-.5-.5s-.2-.3-.3-.4-.3-.3-.2-.4l.4-.3ZM100.9,99.2l.6.9h-.1c-.9.8-1.9.1-2.8.3s-.4-.2-.6-.3a1.3,1.3,0,0,0,.1-.6c.2.1.3.3.4.4l1.1-.3.4.4c.1-.1.1-.3.3-.5a1.1,1.1,0,0,0,.6-.3Z" style="fill:#facc53"/><path d="M134.8,81h0l1.1.7h0l.9.9-.3.3-.8-.3-.4-.6H135C134.9,81.5,134.9,81.3,134.8,81Z" style="fill:#fdc738"/><path d="M108.5,81.7,109,83c-.3.4-.5.4-.8.1a2.5,2.5,0,0,0-.9-.4h-.1A4.5,4.5,0,0,0,108.5,81.7Z" style="fill:#cba132"/><path d="M116.7,51l1.1,1.5-.3.7-1.2-1.4a1.3,1.3,0,0,1,.1-.6Zm22.9,35.9c-.4.4-.8.9-1.4.4l1.1-1.2A1.9,1.9,0,0,0,139.6,86.9ZM138,84.1l-1.4-.7a2.8,2.8,0,0,0,.1-.9Z" style="fill:#fdc738"/><path d="M135,74.1h-.8c.3-.8.7-1.1,1.1-.8S135,74.1,135,74.1Z" style="fill:#facc53"/><path d="M115.6,51.4l.3.3c0,.1-.1.1-.1.2l-.7-.3Z" style="fill:#fdc738"/><path d="M136.6,69.9l-.5-.4c.1-.1.1-.1.1-.2h.5C136.8,69.6,136.7,69.7,136.6,69.9Z" style="fill:#f6d57b"/><path d="M141.8,90.7h-.5c0-.1,0-.1-.1-.1l.4-.2Z" style="fill:#fdc738"/><path d="M111.1,79.7l.2.2h-.2Z" style="fill:#d3a732"/><path d="M109.5,81l-.3.3Z" style="fill:#cba132"/><path d="M137,66.2h0Z" style="fill:#f6d57b"/><path d="M130.2,80.4l.9.7.3-.3-.4-.3.8-.3a4.3,4.3,0,0,0,.4.7h-.4v.3l-.3.3.3.8h-.4v.2l.4-.3h.4c0,.3-.3.6.3.6l.2,1.1c-.3.4-.5.4-.6-.1s-.7-.8-1.2-.3l.8.6c-.8,0-1,.4-1.1,1.1a.1.1,0,0,1-.1.1.1.1,0,0,1,.1-.1l.4.3h.4l.3.5-.9.4a3.6,3.6,0,0,1-.4-.9l-.6-1.1c.1-.3.3-.5.4-.8s.1.5.3.7h.3l-.5-.6c-.1-.7-.4-1.4.3-2-.9.1-1.1.9-.7,1.6l-2.2.6.4.8.3-.2.3-.2c.2.5.2.4.6.1s.4,0,.6.1l-.4.9-1-.4h-.8l-.3-.8c-.3.1-.9-.1-.8.6l-.4.4-1.1-.3.2-.4c-.8-.4-.1-.7.1-.9l-.6-.3.2-.3.3-.3H125l-.9-.5c-.2-.1-.4.3-.8.6l.7.3.3.2h.4c-.6.5-.2.9.1,1.4s-1.4-.2-2.1-.6l.5-.5-.2-.2c-.7-.3-.5-.8-.4-1.2L122,82h-.4a6.5,6.5,0,0,0-.4,1.3l-.7.2v.2h.9c-.1-.3-.1-.4-.2-.5h1.2c-.8.5.1,1.8-1.3,2.3s.1-.6.1-.8h.4a.6.6,0,0,1-.1-.4l-.3.4-.3-.7c-.7.3-.3,1-.6,1.4h0c-.6.1-.1.6-.5.8h.7l-.9.5v-.9c-.1-.2-.1-.4-.3-.6l-.4-.3c-.3-.4-.6-.3-.9-.1l.5.9c-.4.3-.8.8-1.1-.1h-1.1c-.3,0-.6.1-.8-.1s-.7-.6-1.2.1h-.2l-.6-.5h.6c.1-.2.2-.3.2-.5s-.1-.4-.1-.6l-.4.2-.7.4-.9-.5-1.1-.9c.3-.4.6-.9.1-1.4s0-.6.4-.6V82c-.1.1-.1.1-.1.2h.1c0-.1.1-.1.1-.2l.4-.3.4-.3c.4.1.4-.2.3-.4l.8.2.6-.9,4.5,1.6h3c1.3.3,2.5-.2,3.7-.4h.7l-.6.9a2.6,2.6,0,0,0,.9-.5c.1-.1-.1-.3-.1-.4l2.3-.9a2.8,2.8,0,0,0,1.7.4C130.2,80.7,130.1,80.5,130.2,80.4Zm-10,2.9Zm-8.1.4h.6v-.2l-.5-.4-.3.8Zm14.4,0c.4.8.6.8,1.3-.3Zm-11.3-1.8h-.3c-.1.2-.3.4-.2.5s.4.4.6.7.4-.3.3-.4A4.3,4.3,0,0,0,115.2,81.9Zm9.9,1a.1.1,0,0,0,.1-.1h-.1Z" style="fill:#c09526"/><path d="M121.1,83.3l.4-1.3h.4l.6.6a.8.8,0,0,0,.4,1.2l.2.2c-.1.2-.3.3-.5.5s1.2,1,2.1.6a.6.6,0,0,1,.1.4l-.3.4h0c-.3,0-.9-.6-.9.3l-.5.7a3.6,3.6,0,0,0-.9-.5,1.1,1.1,0,0,0-.8.1c-.2.2-.1.5-.2.9l-.8-.2c.1-.5.1-.5-.1-.6h-.7c.4-.2-.1-.8.5-.8h.5v-.2h-.4c.3-.4-.1-1.1.6-1.4l.3.7a2.5,2.5,0,0,1-.1.8c1.3-.5.5-1.8,1.3-2.3h-1.1Zm1.8,1.9a.1.1,0,0,1-.1-.1h.1Z" style="fill:#cba132"/><path d="M134.5,104.1c.1.3.3.5.4.8s-.1.3-.1.6h-.6c-.4.3-.8.4-.9.6l-1-.9h-.2l1.2,1.9-.6.7-.2-.9-1.1.9c-.2-.8.3-1.2,1-1.4h-.7l.3-1.8.8-.4v.7l.9-.7C133.9,104,134.2,103.6,134.5,104.1Zm-1.5,1h0v-.2h.1Zm3.3-17.4h.3a3.1,3.1,0,0,0,.5,1c-.1.4-.4.9.4,1v.4l-.3.3.6.2.5.3.4.3-.2.2c-.6,0-1.4.3-1.6-.8h-1.3l-.6-1.1,1.1-1.7Z" style="fill:#facc53"/><path d="M126.4,85.2c-.1-.7.4-.5.8-.6a2.6,2.6,0,0,0,.3.8h.8l1.1.9a2.8,2.8,0,0,0-.1.9c-.4-.1-1-.6-1.4.1l-.7-.3-.5-.2.3.6-1.1-.6c.1-.3.3-.5-.3-.6l-.5-.3v-.2l1.1.3a.6.6,0,0,1,.2-.7Zm.8.7v.3h1V86Z" style="fill:#d3a732"/><path d="M133.6,86.1h-.1l.5-.6.9-.6.5.4.5-.3a.4.4,0,0,1,.1.3c-.3.3-.7.6-.1.9s.5.8.2,1.2h-.3a.4.4,0,0,0-.1-.3h-.1v.4l-.8.4a4.5,4.5,0,0,1,.3-1.1c-.7.6-1.2.6-1.8,0h.6l-.3-.2v-.3Zm-27.3,6.5,1.7.4c-.1.9.6,2-1.2,2.1l.8-.6-1.3-.3-1.1.6.6.5a.1.1,0,0,1-.1.1l-1-.4.6-.9c.1-.1.1-.3.2-.4S106.5,93.3,106.3,92.6Z" style="fill:#facc53"/><path d="M106.3,92.6c.1.6-.5.8-.8,1.1l-.4-1h.7c-.1-.3-.1-.4-.2-.5l-1.1-.5-.7.2a1,1,0,0,0-.2-1.8l-.6-.3.3-.8.2.3h.4l.7,1.1.7.7a4.3,4.3,0,0,0,.4.7l.6.4c.2,0,.1.2,0,.3Z" style="fill:#f6d57b"/><path d="M135.9,84.9l-.5.3-.5-.4c-.3-.4-.9-.6-.7-1.4h.5c0,.3-.1.4-.1.6s.4-.8.4-1.3h.6v-.2l.8.3a.1.1,0,0,1-.1.1.1.1,0,0,1,.1-.1l.3-.3a2.8,2.8,0,0,0-.1.9l-.6,1.5Z" style="fill:#cba132"/><path d="M107.2,96.4a7.5,7.5,0,0,1,1.5,0c.3.1.5.4.8.7l-.4.3-.7.3-1.8-.6.6-.7Z" style="fill:#facc53"/><path d="M115.2,108c.5,0,.8.1.5.7a.3.3,0,0,0,0,.4c.3.4-.1.4-.3.4l-.3-.3a7.1,7.1,0,0,0-.4-1.7c-.1-.3.2-.9-.5-.8h0l-.5-1.3c.3.3.4.5.6.6l.8.4h.3a5.6,5.6,0,0,0-.2,1.7Z" style="fill:#f6d57b"/><path d="M106.5,92.2l-.6-.4a1.6,1.6,0,0,1-.4-.7c.3-.3.3-.6-.1-.9l-.3-.3h.6l.4.4.8.5h0v1.4C106.8,92.3,106.7,92.3,106.5,92.2Z" style="fill:#facc53"/><path d="M113.7,84.8l.4-.2a1.3,1.3,0,0,1,.1.6c0,.2-.1.3-.2.5h-.6a.6.6,0,0,0-.1.4h-.1a1.8,1.8,0,0,1,.1-.6h-.9c0,.2.1.3.1.5h-.8c.1-.3.3-.4.4-.6h.1v-.8l.9.5c0,.1.3,0,.6-.2Z" style="fill:#d3a732"/><path d="M112.4,106.8c.1-.4-.3-.8.1-1.2s-.1-.4-.3-.5-.3-1.1,0-1.3.6,1.9.8,3.1Zm-2.3-5.2h.9c0-.2.1-.3.1-.5h.8c0,.4-.1.9.6.6l-.6.8c-.2-.2-.3-.6-.4-.6s-.4.3-.6.4l-1,.4a3.7,3.7,0,0,1,.2-1.2Z" style="fill:#f6d57b"/><path d="M138,88.2c-1.1-.4-1.8-1.4-1.4-2.3l.3.7.7-.3Z" style="fill:#fdc738"/><path d="M132.7,84.3l-.2-1.1.4-.3h.4v.5c.3.2.6.3.6.4l-.3.9h-.1l-.4-.4h-.4Z" style="fill:#d3a732"/><path d="M133.4,97c.2-.4.7-.6,1.4-.4l-.6.4a4.1,4.1,0,0,1,.5.9c.1.1-.1.4-.1.5l-.4-.2Z" style="fill:#fec42f"/><path d="M118.4,86.4a4.1,4.1,0,0,0-.5-.9c.3-.3.6-.3.9.1s.4.2.4.3.1.4.3.6h-.3C118.8,86.9,118.6,86.9,118.4,86.4Z" style="fill:#d3a732"/><path d="M129.7,84.8l.6,1.1-.4.9-.6-.7v-.4Z" style="fill:#cba132"/><path d="M133.5,85h.1l.4.4-.5.6-1.5-.2.2-.6C132.7,85.7,133,85,133.5,85Z" style="fill:#c09526"/><path d="M125.4,107.2c-.9.5.3.6.2.7l-.7,1.1-.2-1.1a6.6,6.6,0,0,1-.4-1.1l1.1.4Z" style="fill:#facc53"/><path d="M138.5,91.3l.2-.2h.1l.2.9v1.3l-.9-.7.4-.3A3.8,3.8,0,0,1,138.5,91.3Z" style="fill:#fdc738"/><path d="M112.1,84.7v.8l-.2.2-.6-.9c-.1-.2-.3-.3-.4-.4s-.5-.3,0-.5h.2Z" style="fill:#d6b45c"/><path d="M104.1,89.3h-.4l-.2-.3-.8-.5v-.2l1.8.2A5.8,5.8,0,0,1,104.1,89.3Z" style="fill:#eaf0fc"/><path d="M110.2,98.8l-.9.4c.6-1.6.6-1.6,1.2-1.4Z" style="fill:#f6d57b"/><path d="M124.9,85.5c.2.1.3.3.5.3s.3.4.3.6a.6.6,0,0,0-.1.4l-.8-.5-.3-.3.3-.4Z" style="fill:#c09526"/><path d="M131.4,85.9H131l-.4-.3h0c.1-.6.3-1.1,1.1-1.1h0l-.3.8v.5Zm-7,.1.3.3-.4,1.1-.8-.8Z" style="fill:#cba132"/><path d="M99.1,98.9c0-.3-.1-.6-.1-.8s.7.2.8.5h.6a.1.1,0,0,0,.1.1l-1,.3Zm9.3,5.6h.5c-.3.5-.3.5-1.4.1l.7-.9A1.6,1.6,0,0,0,108.4,104.5Z" style="fill:#f6d57b"/><path d="M107.2,96.4a1,1,0,0,1-.8-1.3l1,.5A3.1,3.1,0,0,1,107.2,96.4Z" style="fill:#facc53"/><path d="M105.7,89.9h-.6a2.8,2.8,0,0,1-.1-.9C106,89.1,106.2,89.3,105.7,89.9Z" style="fill:#eaf0fc"/><path d="M139.5,90.4l-.2-.2-.3-.7,1-.6h.1Zm.1,1.5h.7v1c-.7.1-.7.1-.7-.8Z" style="fill:#fdc738"/><path d="M125.4,96.8l.5-1.1.2.2v1.5l-.9-.7Zm5.5,3.4H130l-.5-.6c.1-.1.3-.1.4-.3s1.1-.1,1,.8Z" style="fill:#facc53"/><path d="M139.6,91.9h-.8l-.2-.9.6-.4A8.4,8.4,0,0,1,139.6,91.9Zm-8.4,3-1.6-1a.4.4,0,0,0,.1-.3l1.7.9C131.3,94.7,131.2,94.8,131.2,94.9Z" style="fill:#f6d57b"/><path d="M108.3,97.6l.7-.3c0,.3.1.6.1,1h-.3A2.2,2.2,0,0,1,108.3,97.6Z" style="fill:#eaf0fc"/><path d="M136.9,92.1v-.4h.8l.3.6v.3c-.4,0-.9.1-1.1-.4ZM114,108.4l-1.2-.4v-.3h1.1l.2.6C114.1,108.3,114,108.3,114,108.4Z" style="fill:#f6d57b"/><path d="M116.7,90.7l.4-.9,1.3.2Zm8.3-.2c.2-.5.2-.5,1.6-.3Zm-16.3-3.4h1.2c-.3.6-.3.6-1.2.2Zm29-2.1a3.5,3.5,0,0,0,.1-.6c.3.6.2,1.4,1.1,1.3s-.9.4-1.1-.2l-.2-.4Z" style="fill:#facc53"/><path d="M128,89.7a2.5,2.5,0,0,1,.1.8l-.3.4c-.1-.1-.4-.3-.3-.4l.3-.9Zm-19.1,4.6c.2.2.4.4.4.6s-.1.4-.2.5h-.3v-.4c0-.2-.1-.4-.1-.6Zm6.2-3.7a7.9,7.9,0,0,1-.4.9h-.2a4.5,4.5,0,0,0-.3-1.1Z" style="fill:#f6d57b"/><path d="M133.5,107.2l.6-.8h.2a2.5,2.5,0,0,0-.1.8l-.5.2C133.6,107.3,133.6,107.2,133.5,107.2Zm-27.2-9.4.4.9c0,.1-.1.1-.1.2l-.6-.4Zm26.4,4.1-.3-.7.7-.4-.2,1.2Zm7.7-11.1h-.5l.4-1c.1,0,.1,0,.1-.1a1.3,1.3,0,0,1,.1.6h-.1Z" style="fill:#facc53"/><path d="M110.4,85l-.6.8-.2-.2a1.8,1.8,0,0,1,.5-.7C110.2,84.8,110.3,84.9,110.4,85Z" style="fill:#d3a732"/><path d="M99.1,98.9l.5.2a1.7,1.7,0,0,1,.1.7C99.3,99.5,98.9,99.4,99.1,98.9Zm32.5,1.2.5.9h-.3l-.5-.9Z" style="fill:#facc53"/><path d="M124.4,86l-.9.6v-.3C123.6,85.5,124.1,86,124.4,86Zm7-.6.3-.8C132.3,85.2,131.6,85.2,131.4,85.4Z" style="fill:#c09526"/><path d="M140.8,91l.6.3c-.6.2-.9.3-.9-.3Zm-3.9.7v.2l-.6-.3.2-.3Zm1.1.6-.3-.6Q138.3,91.7,138,92.3Zm-.3-1.8-.6-.2.3-.3h.3Zm2.1,3.3c-.1-.2-.3-.4-.3-.6h.3Zm-1.7-4.4h.6v.2h-.5Zm-.8-3.9.3.2-.2.3c-.1-.1-.2-.1-.2-.2Zm-.7-.3.3-.2a.2.2,0,0,1,.2.2l-.2.2Zm1.4,3c.1.1.2.3.3.3h-.2c-.1,0-.1-.2-.1-.4Zm-2.1-.8h.3a.4.4,0,0,1,.1.3h-.5Z" style="fill:#fdc738"/><path d="M131.9,108l.4-.4v.2l-.5.2Zm5.8-17.5v-.3h0Z" style="fill:#facc53"/><path d="M137.7,96.3h-.4c0-.1.1-.1.1-.2h.4Z" style="fill:#fec42f"/><path d="M139.6,87.9v0h.2Zm-3.5,3.9h-.3c0-.1,0-.1.1-.1l.2.2Z" style="fill:#fdc738"/><path d="M109.8,102.8a.4.4,0,0,0-.1.3h-.1C109.6,102.8,109.7,102.8,109.8,102.8Z" style="fill:#f6d57b"/><path d="M135.9,84.9h.1v0Z" style="fill:#fdc738"/><path d="M135.1,104.8l.2-.2v.2Z" style="fill:#facc53"/><path d="M132.9,84.3h.2C132.9,84.5,132.9,84.4,132.9,84.3Zm.7,1.8.2.3C133.7,86.4,133.7,86.2,133.6,86.1Z" style="fill:#c09526"/><path d="M139,90.3Z" style="fill:#fdc738"/><path d="M109.6,94.5Z" style="fill:#f6d57b"/><path d="M102.1,88.8h0c.1-.1.1,0,.2.1h-.1Z" style="fill:#eaf0fc"/><path d="M130.9,100.2c.1.1.1.1.1.2h-.1Zm-29.4,0c.1.1.1.1.1.2h-.1ZM140.8,91h0Zm-9.1,17.2h.3C131.9,108.1,131.7,108.1,131.7,108.2Z" style="fill:#facc53"/><path d="M140,88.2Z" style="fill:#fdc738"/><path d="M134.2,106.1Z" style="fill:#facc53"/><path d="M136.9,92.1h0Zm.8-7.1h0c-.1-.1-.1-.1,0-.1Z" style="fill:#fdc738"/><path d="M103.1,89.7Z" style="fill:#f6d57b"/><path d="M108.6,85.1Z" style="fill:#d3a732"/><path d="M135.8,106.1Z" style="fill:#fec42f"/><path d="M135.8,106.1Z" style="fill:#fec42f"/><path d="M112.4,106.8Zm1.7,0Z" style="fill:#f6d57b"/><path d="M125.4,107.1Zm-24.5-7.8Zm30.5,8.4Z" style="fill:#facc53"/><path d="M140.4,90.7h0Z" style="fill:#fdc738"/><path d="M103.8,87.4Z" style="fill:#eaf0fc"/><path d="M106.9,90.8Z" style="fill:#facc53"/><path d="M140.5,90.8h0Z" style="fill:#fdc738"/><path d="M135.9,87.5h0Z" style="fill:#facc53"/><path d="M110.1,101.6Z" style="fill:#f6d57b"/><path d="M138.7,102.5l1.3.2-.9,1.1h-.6v.6l-.9.2.4-1.6-.3-.2-.2.7c-.3-.3-.3-.3-.3-.4s.3-.6.7-.7.5,0,.8-.1Zm2.1-6.4-.6-.3-.7.8a2.6,2.6,0,0,0,.1-.7v-.3h.5l-.2-.8c.3-.2.3-.2,1.2.6S141,95.8,140.8,96.1Z" style="fill:#fdc532"/><path d="M141.6,99.1l-.4.3h-.4l-.4-.6.8-.4c.5-.5.3.4.6.3A.4.4,0,0,0,141.6,99.1Z" style="fill:#f6d57b"/><path d="M141,98.4l-.8.4-.9-.5c0-.1.1-.4.1-.6l.8.3h.1Z" style="fill:#fdc532"/><path d="M138.1,97.3h.9C138.6,98,138.4,97.7,138.1,97.3Z" style="fill:#fdc738"/><path d="M137.8,101.6c.1.1.3.2.3.3s-.1.3-.2.3l-.3-.2A.5.5,0,0,1,137.8,101.6Zm1.7-4.8.4.4-.4.2Zm1.2,5.6-.3-.6h.2l.3.6C140.8,102.3,140.7,102.3,140.7,102.4Zm-2.6-5.1-.4-.4h.3A.7.7,0,0,1,138.1,97.3Zm2.6,2.2h.4v.3A.5.5,0,0,0,140.7,99.5Zm-1.7-2h.2v.3Z" style="fill:#fdc532"/><path d="M138.8,95.7c-.1.1-.2.1-.2.2h0C138.6,95.6,138.7,95.7,138.8,95.7Zm1.5,5v.3h-.1a.4.4,0,0,1-.1-.3Z" style="fill:#fdc738"/><path d="M136.8,102l.2-.3h.1Zm.6-1.6h-.2c0-.1,0-.1.1-.1Zm-.1-3.4h0Zm-1.2,2.9c0-.1,0-.1.1-.1a.1.1,0,0,1,.1.1h-.2Z" style="fill:#fdc532"/><path d="M139.2,97.5v-.3h.3v.3Z" style="fill:#fdc738"/><path d="M140.3,103.5v-.4h.1A.6.6,0,0,0,140.3,103.5Zm-4.5,1h-.1C135.8,104.3,135.8,104.4,135.8,104.5Zm3.3-.2h-.3a.1.1,0,0,0-.1-.1h.4Zm-4,0h0Zm.5-5.4h0Zm5.2,4.2a.4.4,0,0,1-.1-.3h.1Z" style="fill:#fdc532"/><path d="M141.6,99.1v-.4h.6V99ZM140.4,98h0Zm-.9-1.3Z" style="fill:#fec42f"/><path d="M140.8,96.1Zm-3.1-2.6h0C137.6,93.6,137.7,93.6,137.7,93.5Z" style="fill:#fdc532"/><path d="M138.6,95.2Z" style="fill:#fec42f"/><path d="M142.3,102.8H142c.1-.3.1-.6.2-1s.4.4.4.6S142.5,102.6,142.3,102.8Zm.2-1.2h0Z" style="fill:#fdc738"/><path d="M142.6,103.3h-.3V103C142.5,103.1,142.5,103.2,142.6,103.3Z" style="fill:#fec42f"/><path d="M143.3,100.9l.2.3h-.1A.6.6,0,0,1,143.3,100.9Z" style="fill:#fdc738"/><path d="M142.1,103.8h-.2c0-.1,0-.1-.1-.3S142,103.8,142.1,103.8Z" style="fill:#fdc532"/><path d="M155.9,114.5Z" style="fill:#3870e6"/><path d="M134.9,60.4l-.7.3.4,1.3h.7c.3.3.5.6.3.8h-1.8c.8-.4-.1-1.1.1-1.2s-.7-.8-.4-1.3l1.5.2h-.1Z" style="fill:#facc53"/><path d="M119.4,57.2l-.6-.8.3-.3-1.3-.8a1.3,1.3,0,0,0,.1-.6l1.3.8.3-.6h.3a5.8,5.8,0,0,1,.3,1.4C120,56.9,119.9,57.2,119.4,57.2Z" style="fill:#fdc738"/><path d="M114.1,80.1l-.6.9-.8-.2-1.1-1.2.7-.6h.3c0,.4-.4,1.1.4,1.2s.3-.4.4-.7Z" style="fill:#d3a732"/><path d="M112.8,55.8h-.9l.4-1.3h.2v.5l1.1.5c-.4.6-.5,1.4-1.4,1.6s-.1-.5.8-.8a2.5,2.5,0,0,0-.2-.7Zm23.4,8.4.3.2-.6.4c-.4.3-.6.3-.8-.3s-.4-.4-.6,0h-.2l.6-.9.6.9.7-.2Zm-8.9,11.3-.2-1.3,1.3-.5-.8.9a2.8,2.8,0,0,0-.1.9Z" style="fill:#facc53"/><path d="M130.2,80.4c0,.1,0,.3-.1.3a2.2,2.2,0,0,1-1.7-.4l1.2-.6c-.1.6-.1.9.6.7Z" style="fill:#d6b45c"/><path d="M113.9,61.5l2,.4c.1,0,.1.3.2.6l-2.3-.7A.4.4,0,0,0,113.9,61.5Z" style="fill:#facc53"/><path d="M117.7,55.9l.3.4h0c-.1.2-.3.6-.4.6l-1.1-.6.7-.6Z" style="fill:#fdc738"/><path d="M117.9,57.2l.4-.9c.3.7,1,.9.6,1.6l-.3.2c-.1-.1-.1-.1-.1-.2l-.2-.3c.2-.3-.1-.4-.4-.4Z" style="fill:#f6d57b"/><path d="M116.4,70.9l-.8-1.2h.6l.8,1.4-.2.5Zm-6.8-10.1,1.1-.8,1-.3c0,.6-.5.8-2.1,1.1Z" style="fill:#facc53"/><path d="M115.6,68.1h.9v.3l-.8.3.6.4v.2h-.7c-.1-.1-.1-.4-.1-.6a2.3,2.3,0,0,0,.1-.7Z" style="fill:#fdc738"/><path d="M117.7,55.9l-.4-.2-.3-.9h.1l.3-.3h.4c.1.1.1.1.1.2a1.3,1.3,0,0,0-.1.6A1.5,1.5,0,0,0,117.7,55.9Z" style="fill:#f6d57b"/><path d="M123.3,62.9l-1-1.5C123.2,61.5,123.7,62.3,123.3,62.9Z" style="fill:#facc53"/><path d="M118.3,57.6l.2.3-.7.5a13.4,13.4,0,0,1-.6-1.2h.7Z" style="fill:#fdc738"/><path d="M127.1,73.6l-1.1.9c-.1-.4-.2-.8-.1-.9l1.1-.3Z" style="fill:#facc53"/><path d="M113.6,79.7c-.1.3-.3.4-.4.7s-.4-.7-.4-1.2S113.3,79.5,113.6,79.7Z" style="fill:#c09526"/><path d="M124.3,62.1a7.5,7.5,0,0,0-.7-1.2l.6-.2.4,1.3Z" style="fill:#facc53"/><path d="M133.3,59.9l-1.6.2a.1.1,0,0,0-.1-.1l1.2-.7C133,59.3,133.1,59.6,133.3,59.9Z" style="fill:#f6d57b"/><path d="M116.7,54.6h-1.3c0-.1-.1-.2-.1-.3l1.1-.5h.3Zm15.4,1.7,1.1.2a6.6,6.6,0,0,0-.4,1.1Zm-6.3,12.8-.9-.7c-.1-.1-.1-.3,0-.3h.4c.1.1.3.1.4.3S125.8,68.6,125.8,69.1Zm-2.7-4.9V63.1c.3.3.6.4.8.7s0,.4-.1.4Zm8-7.2c-.2.1-.4.3-.5.2l-.4-.4.4-.3.5.3Zm5.5,11.3c-.3.1-.6.3-.7.2a1.8,1.8,0,0,1-.4-.9Z" style="fill:#facc53"/><path d="M132.2,58.1h-1.3v-.3h1.3Z" style="fill:#f6d57b"/><path d="M127,75.7l-.9-.6C126.6,74.7,126.6,74.7,127,75.7Z" style="fill:#facc53"/><path d="M115.1,52.7c.7-.3,1-.3.9.5Z" style="fill:#fdc738"/><path d="M126,71.5a3,3,0,0,0,.3.6,1.6,1.6,0,0,1-.9.3A2.3,2.3,0,0,0,126,71.5Zm8.1-7.3c-.5-.8-.4-1.1.3-1.2Z" style="fill:#facc53"/><path d="M115.6,68.1l-1.1.6V68Z" style="fill:#fdc738"/><path d="M133.1,67.7l.9-.5.3.8Z" style="fill:#facc53"/><path d="M126,81.3c.1.1.1.4.1.4a1.3,1.3,0,0,1-.9.5l.6-.9Z" style="fill:#d3a732"/><path d="M130.2,80.4c-.6.2-.6-.1-.6-.6l.5-.2A1.1,1.1,0,0,0,130.2,80.4Z" style="fill:#c09526"/><path d="M116.4,70.9l-.6.6h-.2c0-.3.1-.4.1-.6Z" style="fill:#facc53"/><path d="M118.8,54l-.6-.4.2-.2.5.4C118.9,53.9,118.9,54,118.8,54Zm-1,.6h-.4a.4.4,0,0,0,.1-.3l.6-.3Z" style="fill:#fdc738"/><path d="M116.7,53.4c.6-.3.4.2.4.4h-.4Z" style="fill:#facc53"/><path d="M115.6,69.7l-.5.3a1.7,1.7,0,0,1-.1-.7Zm1.1-16.3V54h-.3C116.5,53.7,116.2,53.3,116.7,53.4Z" style="fill:#fdc738"/><path d="M126.1,69.4h-.5v-.3h.4C126.1,69.3,126.1,69.3,126.1,69.4Z" style="fill:#facc53"/><path d="M136.2,64.1l.6-.4-.6.4Z" style="fill:#f6d57b"/><path d="M116.9,53.9h.3l.3.3Zm1,2.4.3-.3c.1.1.1.1.1.2Z" style="fill:#fdc738"/><path d="M117.8,71.3c-.1-.1-.1-.1-.1-.2v0A.3.3,0,0,1,117.8,71.3Z" style="fill:#facc53"/><path d="M118.9,52.7l-.2.3h-.1Zm-.2,5.4.3-.2a.4.4,0,0,0-.1.3h-.1A.1.1,0,0,1,118.7,58.1Z" style="fill:#fdc738"/><path d="M109.6,60.8a.4.4,0,0,0-.1.3h-.1Z" style="fill:#facc53"/><path d="M118.7,58.3h.1c-.1.1-.1.1-.1.2Z" style="fill:#f6d57b"/><path d="M132.1,56.3H132S132,56.3,132.1,56.3Z" style="fill:#facc53"/><path d="M116.7,54.6h0l.3.3c-.1,0-.1,0-.1.1Zm2.2-1.9h.2a.1.1,0,0,0,.1.1C119,52.6,118.9,52.7,118.9,52.7Zm-.1.5Zm-.1,1.2Zm.8,2.8c0,.1-.1.1-.1.2v-.2Z" style="fill:#fdc738"/><path d="M134.6,67.7h0Zm-19.1,2.6Z" style="fill:#facc53"/><path d="M116.3,55.7Z" style="fill:#fdc738"/><path d="M116.3,55.7Z" style="fill:#fdc738"/><path d="M111.6,81.6c-.6-.5.2-.6.4-.9v.4l.2.2h-.1l-.6.2Zm-1.2.6.5.2c0,.1-.1.1-.1.3l-.5-.2Z" style="fill:#c09526"/><path d="M112.1,81.5h.4l-.4.3Z" style="fill:#d3a732"/><path d="M112.2,81.3l-.2-.2Z" style="fill:#d3a732"/><path d="M133.4,83.2H133l.3-.4-.4-.2c.2-.4.4-.9-.1-1.3l-.3.5a.9.9,0,0,1-.1-.5l.3-.3.9-.3c0,.3-.1.6-.1.8a.8.8,0,0,0,.2.4c.1-.1.3-.1.4-.3v.3c-.1.2-.7.3-.2.6V83a.6.6,0,0,0-.5.2Z" style="fill:#c09526"/><path d="M132.2,81.1a.9.9,0,0,1,.1.5l-.8.8-.3-.8.3-.3h.7Z" style="fill:#d3a732"/><path d="M107.4,82.7a1.8,1.8,0,0,1,.9.4c.3.3.6.3.8-.1l.3.9c-.6,0-1.2.1-1.4-.8h-.7A.5.5,0,0,1,107.4,82.7Z" style="fill:#fdc738"/><path d="M134.8,81a2.2,2.2,0,0,1,.1.8h-.3a1.3,1.3,0,0,1-.1-.6Z" style="fill:#d3a732"/><path d="M134.5,81.2a1.3,1.3,0,0,1,.1.6H134Z" style="fill:#fdc738"/><path d="M133.9,82v-.3h.2C134,81.7,134,81.8,133.9,82Z" style="fill:#fdc738"/><path d="M129.7,53.9Z" style="fill:#fec42f"/><path d="M133.9,82a.4.4,0,0,0,.1-.3h.9c.1,0,.3,0,.3.1a2.1,2.1,0,0,1,.4.6v.2H135c.1.4.4,1-.4,1.3s.1-.4.1-.6h-.5l.2-.3.4-.3-.4-.3h-.6C133.2,82.2,133.9,82.1,133.9,82Zm2-.4Z" style="fill:#d3a732"/><path d="M130.2,84l-.4.8h-.6c-.4.3-.4.4-.6-.1l-.3.2-.3.2a2.9,2.9,0,0,1-.4-.8l2.2-.6c-.4-.8-.2-1.5.7-1.6-.8.6-.5,1.3-.3,2Zm-5.8-.3H124l-.3-.2.3-.2h-.1l-.2.3-.7-.3c.3-.3.6-.6.8-.6l.9.5a.1.1,0,0,1-.1.1.1.1,0,0,1,.1-.1h.4l-.3.3-.2.3Z" style="fill:#cba132"/><path d="M124.4,83.7h.1l.6.3c-.2.3-.9.6-.1.9l-.2.4v.2h-.1a.6.6,0,0,1-.1-.4C124.2,84.7,123.8,84.3,124.4,83.7Z" style="fill:#d6b45c"/><path d="M131.7,82.4l.8-.8.3-.5c.5.4.3.9.1,1.3h-1.2Z" style="fill:#cba132"/><path d="M132.2,82.4h.6l.4.2-.3.4-.4.3c-.6.1-.3-.4-.3-.6Z" style="fill:#f6d57b"/><path d="M126.5,83.7l1.3-.3C127,84.4,126.9,84.4,126.5,83.7Zm-11.3-1.8c.1.3.3.4.4.7s-.2.3-.3.4l-.6-.7c-.1-.1.1-.4.2-.5Z" style="fill:#cba132"/><path d="M111.9,83.8l.3-.8.5.4v.2h-.7Z" style="fill:#d3a732"/><path d="M129.2,85.7v.4l-1.1-.9Z" style="fill:#fdc532"/><path d="M121.1,83.3c.1.1.1.3.2.5h-.9v-.2Zm0,1.7.3-.4a.6.6,0,0,1,.1.4Zm9.1-1,.5.6h-.3a1.4,1.4,0,0,1-.2-.7Z" style="fill:#cba132"/><path d="M131.7,82.5h.2l-.4.3c-.1-.1-.1-.1-.1-.2Z" style="fill:#d3a732"/><path d="M112.1,81.5h0l-.4.3h0v-.3Zm19.6-.2-.3.3Z" style="fill:#cba132"/><path d="M132.2,82.4v.3h-.3Zm-7.1.5a.1.1,0,0,0-.1-.1h.1c0,.1.1.1,0,.2Z" style="fill:#d3a732"/><path d="M131.8,81.1h-.2V81h.2Zm-20.2.9c0,.1-.1.1-.1.2a.1.1,0,0,1-.1-.1Z" style="fill:#cba132"/><path d="M131.8,81h0Z" style="fill:#d6b45c"/><path d="M120.2,83.3Zm10.4,2.2Z" style="fill:#cba132"/><path d="M112.1,83.7h0Z" style="fill:#d3a732"/><path d="M120.2,83.3Z" style="fill:#cba132"/><path d="M120.2,85.7h.4c0,.1,0,.1.1.2Zm2.7-.5h-.2a.1.1,0,0,1,.1-.1C122.7,85.2,122.8,85.2,122.9,85.2Z" style="fill:#c09526"/><path d="M133,105.1h-.1v.2Z" style="fill:#fdc532"/><path d="M133,105.1Zm-5.8-19.2h0Z" style="fill:#fdc532"/><path d="M126.4,85.2Z" style="fill:#c09526"/><path d="M134.2,83.3h0c-.3.7.4.9.7,1.4l-.9.6-.4-.4a3.2,3.2,0,0,0,.3-.9l-.6-.4v-.5h.4Z" style="fill:#f6d57b"/><path d="M135.9,87.5h-.1v-.4h.1a.4.4,0,0,0,.1.3h-.1ZM103.5,89l.2.3Z" style="fill:#fdc532"/><path d="M135.1,82.8h0Zm1.4,0c-.1,0-.1.1,0,0S136.4,82.8,136.5,82.8Z" style="fill:#fdc738"/><path d="M115.2,108Zm-3.3-22.5.2-.2h-.2Z" style="fill:#fdc532"/><path d="M113.7,84.8Z" style="fill:#c09526"/><path d="M99.8,98.5h0Z" style="fill:#fdc532"/><path d="M112.8,55.8Zm5.5,1.8-.4-.4C118.2,57.2,118.5,57.3,118.3,57.6ZM117,54.8l-.3-.3v-.6h.1l.6.3a.4.4,0,0,0-.1.3C117.2,54.6,117.2,54.7,117,54.8Z" style="fill:#fec42f"/><path d="M134.2,83.3l-.4-.3v-.4a.7.7,0,0,1,.6-.1c.2,0,.3.2.4.3l-.4.3-.2.2Z" style="fill:#cba132"/><path d="M135,81.8h0Z" style="fill:#fdc738"/><path d="M134.2,83.3l.2-.3Z" style="fill:#f6d57b"/><path d="M123.7,83.6l.2-.3h.1Zm.9-.3Zm-12.5.4h0Z" style="fill:#c09526"/></svg>