<svg xmlns="http://www.w3.org/2000/svg" viewBox="0 0 273 179"><path d="M0,4A4,4,0,0,1,4,0H269a4,4,0,0,1,4,4V179H0Z" style="fill:#dfe9ff"/><path d="M83.5,108.2a27,27,0,0,1-.4-2.8v-66H190.9V54.9c0,.3-.2.5-.3.8a1.1,1.1,0,0,1,.3.8V67a6.3,6.3,0,0,1-.3,1.9c.1.3.3.5.3.8s-.4.3-.4.3a3,3,0,0,1,.4,1,15,15,0,0,1,0,3V84.5a2,2,0,0,1-.3,1.1l.3,1.6a.9.9,0,0,1-.3.6.9.9,0,0,0,.1,1.3h0a.5.5,0,0,1,.2.4c0,2.7.1,5.4-.1,8.1-.1.7.1,1.4,0,2.1a24.4,24.4,0,0,0,.1,2.7c0,.3-.2.5-.2.8s.2.4.2.6a15.9,15.9,0,0,1-.4,4.9h-6.9l-2.3.2h-9.2l-1.2-.2h-2.2c-.5,0-1-.3-1.3.3l-2.1-.3H149.2c-3.6.1-7.2-.3-10.8.2l-1.9-.2H102.8l-3.2.2h-.2c-.2-.1-.4-.3-.5-.2l-2.1.2-2.3-.2H90.7l.3.4a1.4,1.4,0,0,0-1.7-.3h-.9l-.9-.2A13.6,13.6,0,0,0,83.5,108.2Z" style="fill:#eaf0fc"/><path d="M172.3,108.2h.4a.4.4,0,0,1,.1.3l.2-.3h.9c0,.2-.1.5-.1.7l.4.4c.1.1.3-.1.4,0l.3.4-.5.2v.2l1.1-.6-.8-.7H176c0,.1.1.1.1.2s.1-.1.1-.2h.7c0-.2-.1-.4-.1-.6h3a.7.7,0,0,0,.1.5h.4c-.1-.2-.1-.4-.2-.5h.9l.2.5c.1,0,.1,0,.1-.1v-.4l2.3-.2h6.9l.9.3c.3.2.8.3.3.8l.2.2c.2.3.4.6.8.5h0c.3-.8.3-.8-.4-.8s-.1-.3-.1-.5a3.9,3.9,0,0,1,2.2,5.1c-.1.1-.1.3-.2.4a5.2,5.2,0,0,0-2.1-.4c.2.3.3.4.3.6h-1.6c.9.5.2.7-.1,1l-.2-.2-.3-.6.8-1-.5-.3c.1.8-1.1,1.9-2,1.8h-1.8l-.3.5-.4-.2c-.2-.6-.5-.2-.8-.1l-.3-.3c.6-.1.5-.7.7-1.1l-1.4.5.6.5h-.8l-.6.2-.4.2-.8-.2c-.3.2-.6.4-.3.8h-.3l-.8-.8-.3,1.1h-3c.6-.5.6-.5.2-.9s.3-.3.5-.5-1.1-.1-1.2-.9h-.2a3.4,3.4,0,0,1,.1,1,4.1,4.1,0,0,0-.5.9l1.3-.5a1.3,1.3,0,0,0-.1.6c-.6-.1-.6-.1-.8.3H82.5a5.4,5.4,0,0,1-4.2-1.6,2.7,2.7,0,0,1-.8-1.9,7.5,7.5,0,0,1,.2-2.1,3.9,3.9,0,0,1,3.4-2.4H83a.2.2,0,0,0,.2-.2h4.3l.9.2c.3,0,.6.1.9-.1a1.4,1.4,0,0,1,1.7.3l-.3-.4h3.8l2.3.2,2.1-.2.5.2h.2l3.2-.2h33.7l1.9.2c3.6-.4,7.2-.1,10.8-.2h16.1l2.1.3c.3-.5.8-.3,1.3-.3h2.2c0,.6.4.6.8.5s.2-.2.3-.3h.3Zm17.1,1.4-.2-.2h.2c.2.6.8.2,1.1.3s-.3-.3-.4-.4Zm-67.6,2.5-1.1.2C121.5,112.9,121.6,112.8,121.8,112.1Zm60.8-3.3h-.1l-.3.6c-.1.1,0,.2.1.3h.2l.2-.3v-.6Z" style="fill:#3d73e8"/><path d="M81.3,31.9h0m-.4.3,74.2-.8h19.6l.2.5.3.3a.5.5,0,0,0,.2-.4c.1-.1,0-.3,0-.4h15.9a4.9,4.9,0,0,1,3.6,1.5,2.9,2.9,0,0,1,.9,2.5,3.3,3.3,0,0,1-1,2.8,6.8,6.8,0,0,1-2.6,1.2l-1.3.2H83.1a5.7,5.7,0,0,1-3.9-1.8,2.2,2.2,0,0,1-.6-1.7,13.4,13.4,0,0,1,.1-2C79,33,81,32,82.1,31.5m81.6.3V32h1.2v-.2ZM96.5,33.3h0Zm-14.7,0h0Zm.7-.2c0-.1,0-.1-.1-.1s-.1,0-.1.1,0,.1.1.1Zm81-1.1Z" style="fill:#3b72e8"/><path d="M140.5,122v10.2l-.5.2-.3.4.4.2-.2.3h.6V142l-1.1-.7h-.1l.7.9c.1.1.3-.1.5-.1a10.8,10.8,0,0,1-.1,3.1c-.1.5.1.8.1,1.2l-.4.2h-.5l-.2.4.5.5h.2v-.9h.4c0,1.8,0,3.6-.1,5.4a9,9,0,0,1-.8,2.1,6.4,6.4,0,0,1-.8,1.4,2.8,2.8,0,0,1-1.7.7c-3,.3-3.8-1.4-4.4-3.6s-.2-3.2-.3-4.9v-27h.4c.2.4.3.4.6.1a.7.7,0,0,1,1,0h.4l1.6-.6.3.5c.2-.5.4-.5.6-.1v-.3l1.2.2v-.2h1a1.6,1.6,0,0,0,.6,1.3H140v.2l.2-.3Zm-.9,13.7h.3c-.1-.5.2-1.2-.4-1.7ZM119.9,120l-1.2,4.8-.9,3.4a7.2,7.2,0,0,1-.9,2c0,.1-.1.1-.1.2h.2c0,.4.1.8-.1,1.1s-.2,1.5-.5,2.1-.4,2.4-1,3.5h-.2v.7h-.5c.3.3-.4.8.4.9l-1.4,5c-.2.6-.2,1.2-.4,1.9l-.9,4.2-.8,3.1c-.1.3-.3.4-.5.7s.1-.3.1-.6-.9.1-.9.7l-.6.6h1v.2l-2.3,1.4c-1,.4-3.2-.5-3.8-1.4a1,1,0,0,0,.2-1c0-.2-.1-.3-.1-.5h.5v1.2l.8-1.2h-.7l.2-1.3c-.4.4-.6,0-.8-.3v-.2c.5-.1.5-.1.5-.4l.4-.6h.6a1.7,1.7,0,0,0-.1-.7l-.4.5h-.2l.4-2.4-.8.3a4.1,4.1,0,0,1,.1,1.1l-.7-.8c.3-.1.3-.4.1-.6l.4-.5.6.3c.3-.2.5-.5.8-.6s.7.2,1,.2-.2-.9-.8-.9-.1-.5-.1-.6a.9.9,0,0,0,.1-1.2,1.1,1.1,0,0,0,.3-1.1h-.8V143h-.2a.6.6,0,0,0,.1-.4c.5.7.9-.4,1.4-.1v-.2l-1.2-.3,1.3-5.1,1.1-4.5.2-.5.6.5v.9c.4-.5.6-1,.2-1.5h-.8l.6-2.3.7-.2h.4v-.2H110a.9.9,0,0,1-.1-.5l-.5.3.4-1.9,1.9-7.6a30.3,30.3,0,0,0,4.2.6c.7.1,1.5-.2,2,.6l.3-.5v.2l1.6-.2Zm-4.7,16.4-.4-.2-.3.9h.2l.5-.8Zm-2.1-.6.2.2.6-.5-.3-.2Zm-4.2,18.4.5-.8h-.1l-.6.3c.1.2.1.4.2.6Zm.8-13.1-.4-.5-.3.8h.1c.3,0,.4-.2.6-.3Zm-2.3.1h.3l-.2-.7h-.3Zm1.1.7c-.1-.1-.1-.1-.1-.2l-.3.2Zm-1.4-1.2H107v.2h.1Zm-.1,5.1c.1,0,.1,0,.1-.1H107Zm50.4-7.8-.6-3-.6-1.7c-.1-.3-.1-.6-.2-.9s-.2-.3-.2-.5v-1.4h.2v-.2a6.3,6.3,0,0,1-1-3c-.2-1.3-.7-2.5-1-3.8l-.7-2.8h.6l.2-.2a6.7,6.7,0,0,1,2-.1,4.7,4.7,0,0,0,3.3-.3l1,.2,1.1-.3,1.5,5.7.6,2.5a.9.9,0,0,1,.1.5l-.5-.3c0,.2-.1.3-.1.5h-.4v.2h.4l.7.2.6,2.3h-.8c-.4.6-.4.8.2,1.5s-.1-.6-.1-.9l.6-.5,1.2,4.8,1.1,4.5.4,1.8-.4.4h-.8V143h.1a1.1,1.1,0,0,0,.3,1.1c-.3.8-.2,1.1.3,1.2s-.2.6-.3.6-.4.6-.7.8l1-.4h0c.2.8.5.9,1.5.6l.2.4-.2,1-.4.3.2-1.1c-.3.4-.5.2-.8-.2s-.2.5-.1.6a3.8,3.8,0,0,1,.1,1.2h-.4v1.1h.6l.4.6c-.2.5.3.3.5.4v.2c-.2.4-.4.7-.8.4a4.9,4.9,0,0,1,.1,1.2h-.7l.8,1.2a4.9,4.9,0,0,1-.1-1.2h.5c0,.3.1.6-.1.9s.1.4.4.4a2.3,2.3,0,0,1-1.6,1.3l-1.3.3a2.3,2.3,0,0,1-2.1-.6l-1.2-.9c0-.1.1-.1.1-.2h.8l-.3-.5a.9.9,0,0,0-1-.8h0c0,.2.1.3.1.5s-.5-.9-.7-1.4l-.9-3.5-1.1-4.2-1.1-4.6-.3-1.1c.8-.1.1-.6.4-.9s-.2.4-.4.5Zm.2-1.6c.1.2.1.4.2.6a.8.8,0,0,0,.4.4c.2-.6,0-.9-.6-1Zm1.9-.3.2-.2-.6-.4-.2.3.6.3Zm4.6,17.7-.7-.3h-.1l.6.7Zm-.5-12.2h.1l-.3-.9-.4.5.6.5Zm.8.2v.2h.5Zm-6.8-4.5h0C157.6,137.2,157.5,137.2,157.6,137.3Zm-2.2-16.6Zm-23-91.6a6.8,6.8,0,0,1,1.6-5.5,2.5,2.5,0,0,1,2-.9,8.5,8.5,0,0,1,2.3.3,4,4,0,0,1,1.8,3.3c0,.1.2.2.2.3l.3,1.3c0,.4.3.9-.3,1.2a.6.6,0,0,0-.1.4l-.5-.5a1.5,1.5,0,0,1-1.8.3l-1.7.3c-.1,0-.1-.2-.2-.2h0l-.7.2c-.5.3-.6.1-.5-.6s-.4.8-.9.4-.3.1-.4.2l-.3-.4C133,28.9,132.6,29,132.4,29.1Z" style="fill:#0dbd95"/><path d="M139.7,121h-1v.2l-1.2-.2v.3c-.2-.4-.4-.4-.6.1l-.4-.5-1.6.6c-.1.1-.3,0-.4-.1a.6.6,0,0,0-.9,0h-.1c-.3.3-.3.3-.6-.1s-.3-.1-.4-.1v-5.4h8.2v4.9h-.8v.2l.5.3Zm21.8-.6-1.1.3c.1-.2.1-.5.2-.7h-1.4l.2.5a6.1,6.1,0,0,1-3.3.3h-2l-.2.2h-.6l-1.1-5.4h8.4a35.5,35.5,0,0,1,.9,4.7Zm-41.8-.1h-1.6v-.2l-.3.5c-.5-.8-1.4-.5-2-.6a32,32,0,0,1-4.2-.6l.6-3.7h8.4Zm-.3.3h-.2c0,.1,0,.1.1.1Zm19.1-88.8a17.1,17.1,0,0,0-3.2,0h-2.9V28.5l1-.3a3,3,0,0,0,.2,1h0l.5-.4c.4.6.7.3,1-.6s0,1.4.6,1l.7-.4c.2.3.2.4.3.4l3-.7c.4.6.2.7.9-.3l.6.9.4,2.6h-.4" style="fill:#098468"/><path d="M186.6,115.5l.3-.5h1.8c.8.1,2.1-1,2-1.8l.5.3-.8,1,.3.6-.3.5-.6-.4-.4.6,1.1.2v.2h-3.8c.2-.3.3-.6-.2-.8Z" style="fill:#608ded"/><path d="M166.6,150.2a4.1,4.1,0,0,1-.1-1.1h.4c-.1-.4.6-.9-.1-1.2s.1-.3.1-.6.4.6.8.2l-.2,1.1.4-.3a3.6,3.6,0,0,0,.2-1l.9,3.5h-.3l-.4-.6-.5.2.6.7h-.2l-.5-.2-.4-.6h-.7Zm.6-.8H167c0,.2-.1.3-.1.5h.2v-.5ZM106.7,144a.9.9,0,0,1-.1,1.2c-.1.1,0,.4.1.6a2.2,2.2,0,0,0,.8.9c.4.2-.7-.3-1-.2s-.5.4-.8.6l-.6-.3h0c.5-.2.6-.5.1-.9s.1-1,.2-1.5.1-1.1.8-1.3.1-.2.1-.3h.4l-.4,1.4Z" style="fill:#0dbd95"/><path d="M89.4,31.4l-.5.9a.8.8,0,0,1-.7.2c.5-.3.5-.6.1-1s.1.3.1.4h-.5a.9.9,0,0,0-.1.5l-.9-.3a1.3,1.3,0,0,1-.1.6h-.2a2,2,0,0,0-.4-.8l-.5.3h-.4c-.4,0-.9-.1-1.1.1s-.5.1-.6-.3,0-.1-.1-.2h1.9l-.2-.2a.9.9,0,0,1-.1-.5h3.6A.9.9,0,0,1,89.4,31.4Z" style="fill:#497cea"/><path d="M106.2,150.2h-.6l-.4.6-.5.2h-.2l.5-.7-.4-.2-.4.6h-.3l.9-2.9.7.8v-1.1l.8-.3-.4,2.4h.2l.4-.5a1.7,1.7,0,0,0,.1.7h0v.2Z" style="fill:#0dbd95"/><path d="M192.6,114.4l-.3-.6a7.8,7.8,0,0,1,2.1.4l-1.4,1.5-.3-.4c-.2.8-.8.8-1.3.8l.4-1ZM153.4,31.3l-.4.5.4.2a1.2,1.2,0,0,1-1.7,0l-.2-.3a1.3,1.3,0,0,1,.1.6c-.1,0-.1,0-.1.1h0l-.4-.5c-.1-.1-.2-.3-.4-.4a.9.9,0,0,0-.1.5v.2h-1.5l.3-.4.3-.4.5.4a2.1,2.1,0,0,0,.4-.6h1.2l.4.9.6-.9Z" style="fill:#4e7feb"/><path d="M118.4,31.2c-.1.2.3.6-.2.6s.1.5.2.7l-.9-.6c-.4-.4-.8-.3-1,.1s-.4.3-.6.4v-.2l.2-.2h-1.7l.2-.8h1.9q.3.6.6,0Zm-2.8.3c0-.1,0-.1-.1-.1l-.3.2h.4Z" style="fill:#5786ec"/><path d="M148.7,31.2l-.2.3.3.4c-.2.1-.3.3-.5.3s-.8.3-1-.2h-.4c-.2,0-.5.1-.6,0a2.3,2.3,0,0,0-1.3.2l.5-1h.9l.3.6h.2a.9.9,0,0,1-.1-.5h1.9Z" style="fill:#4e7feb"/><path d="M122.6,31.4l-.2.5-.4-.2-.4-.3-.5.7-.8-.9H125l.6.6c-.4-.1-.9-.6-1.1.2s-.8-.6-1.2-.1l-.5-.3c0-.2-.1-.2-.2-.3Z" style="fill:#6791ed"/><path d="M132.3,31.2c.3.5-.1.7-.4.7h-2.2l-.6.2-.2-.2.6-.6h.7l.2.5h.1a.9.9,0,0,1,.1-.5h.1l1.1.2Z" style="fill:#749bef"/><path d="M166.5,143h0c.1.1.2.3.3.3a.9.9,0,0,1,.4.7,1.1,1.1,0,0,0-.2,1.2c.3.5,0,1-.6,1.2h0l.2-.8c.1-.2.3-.5-.2-.3s-.6-.4-.3-1.2h.3V143Z" style="fill:#0dbd95"/><path d="M166.5,146.4c.6-.2.9-.6.6-1.2s0-.8.2-1.2l.6,3C167,147.3,166.7,147.2,166.5,146.4Z" style="fill:#0dbd95"/><path d="M185.5,115.2c.3-.1.6-.5.8.1h-.5l.5.8v.2l-2.3.2h-1l.4-.6v-.5l.4-.2a2.8,2.8,0,0,1,.1.9l1.2-.3a.9.9,0,0,1,.1.5h.1l.2-.5.3-.2h-.3Z" style="fill:#6791ed"/><path d="M143.4,31.8l.5.2h0a1.7,1.7,0,0,1-2-.1l-.5.3.3.2c0,.1-.1.1-.1.2l-.7-.2h.2c0-.3-.1-.6-.1-1h2.2c.1.1.1.2.2.5h-.6v.2Z" style="fill:#4e7feb"/><path d="M125.7,31.8l-.6-.6,1.1.2.3-.2h2.3c0,.4-.2.5-.9.4l-.2.4h-.4c0-.5-.3-.2-.5-.2Z" style="fill:#5786ec"/><path d="M90.9,31.8l.2.6-1.2-.3-.2-.7c.1-.1.1-.2.2-.2h1.3l.6.3v.3a.4.4,0,0,0-.1.3h.1v.5l-.8-.9Zm5.3.1c-.1.4-.3.4-.6.3l-.9-.4.3.4-1,.6-.3-.2.6-1.2h1.9S95.7,31.5,96.2,31.9Z" style="fill:#497cea"/><path d="M101,31.4a1.7,1.7,0,0,1,.1.7h-.2l-.6-.5-.7.6a3.1,3.1,0,0,0-1-.5l.3-.3h.2c0-.1-.1-.2-.1-.4s1-.3,1.5.3Z" style="fill:#608ded"/><path d="M85.2,31.2a.9.9,0,0,1,.1.5h-2v-.2c0,.1-.1.1-.1.2V32l-.3-.4v-.5Z" style="fill:#6791ed"/><path d="M192.6,114.4l-.9.7a4.2,4.2,0,0,0-.4,1l-.5.2c-.1-.1-.1-.1-.1-.2s.3-.2.4-.4.1-.2.2-.2H191c.3-.3,1-.5.1-1Z" style="fill:#aac2f5"/><path d="M139.6,120.7h.6l-.5-.3v-.2h.8v1.7h-.2c-.5-.2-.6-.7-.7-1.2Z" style="fill:#0dbd95"/><path d="M114.1,31.2c0,.6-.4.9-1,1l-.7-.6v-.3h.8l.2.3a.4.4,0,0,0,.1-.3Zm-.5.6Z" style="fill:#5786ec"/><path d="M104.2,31.3l-.3.4h.6V32l-.5.2c-.4-.4-.8-.2-1.2-.1h-.2v-.6h.9c0,.1.1.1.1.2h.2v-.2h-.1C103.8,31.2,103.9,31.2,104.2,31.3Z" style="fill:#aac2f5"/><path d="M103.8,150.8h.3v.3c0,.2-.1.4-.1.6v.2c0,.2,0,.3.1.4l.5.6-.2.3h0v.2h-.2a3.7,3.7,0,0,1-.5-2.9Zm65,.1h.3a4.2,4.2,0,0,1-.5,2.9h-.2a.9.9,0,0,1-.1-.5l.3-.4a.4.4,0,0,0,.1-.3c.3-.1.3-.2.1-.4V152c0-.2-.1-.4-.1-.6a.7.7,0,0,0,.1-.5Z" style="fill:#0dbd95"/><path d="M99.1,31.2c0,.1.1.2.1.4H99l-.3.3H97.1l.4-.5.2.4h.1a.4.4,0,0,1-.1-.3Z" style="fill:#aac2f5"/><path d="M109.8,31.2h0l-.3.9h-.3l-.8-.3.3-.8Zm2.6.4c.2.6-.4.5-.7.9s-.4-1.1-1.1-1-.1-.1-.1-.2h1.3C111.8,31.7,112.2,31.5,112.4,31.6Z" style="fill:#5786ec"/><path d="M91.7,32a.4.4,0,0,0,.1-.3h0c.2-.1.3-.3.5-.3h.9l-.3.5h-.6l-.4.3h-.1c.1,0,.1-.1,0-.1S91.8,32,91.7,32Z" style="fill:#94b2f2"/><path d="M181,116.4l.3-1.1.8.8c-.1.1-.2.3-.4.4Z" style="fill:#749bef"/><path d="M183.4,115.2v.5c-.4-.2-.8-.3-.6.4l-.4-.2c0-.1,0-.1.1-.1h.2a.4.4,0,0,1-.1-.3c0,.2-.1.2-.1.3s.1-.6.3-.8Z" style="fill:#aac2f5"/><path d="M161.6,153.6c0-.2-.1-.3-.1-.5a.9.9,0,0,1,1,.8h0C162,154.3,161.9,154.2,161.6,153.6Zm-51.3,0c-.1-.6.4-.5.9-.7s-.1.4-.1.6l-.4.5A.8.8,0,0,0,110.3,153.6Zm-1.7-22.1h.8c.5.5.3,1-.2,1.5v-1Zm55.6.1-.6.5a2.8,2.8,0,0,0,.1.9c-.6-.6-.6-.8-.2-1.5Z" style="fill:#0dbd95"/><path d="M102.6,31.2v.6h-1.2c0-.1,0-.2-.1-.2l.4-.4Z" style="fill:#94b2f2"/><path d="M140.5,133.3h-.6l.2-.3-.4-.2.3-.4.5-.2v1.1Zm-34.4,8.3,1.2.3v.2c-.5-.4-.9.8-1.4.1A1.4,1.4,0,0,0,106.1,141.6Z" style="fill:#0dbd95"/><path d="M108.8,31.2l-.3.8H108l-.3-.8Z" style="fill:#aac2f5"/><path d="M120,31.5l-.7.5-.5-.8H120Z" style="fill:#749bef"/><path d="M152.7,31.2l-.6.9-.4-.9Z" style="fill:#3b72e8"/><path d="M96.2,31.9c-.5-.3,0-.5.1-.7h.3l.5.6h-.9Z" style="fill:#aac2f5"/><path d="M140.5,142.2H140l-.7-.9h.1l1.1.7v.2Z" style="fill:#0dbd95"/><path d="M192.3,109.3c.7,0,.7.1.4.8h0c-.4.1-.6-.2-.8-.5Z" style="fill:#749bef"/><path d="M93,31.7l.3-.5h.4c0,.2.1.3,0,.4l-.3.3C93.2,32,93.1,31.8,93,31.7Z" style="fill:#497cea"/><path d="M104.4,153.3l.2-.3h.2c0,.2.1.3.1.5s.1.7-.2,1v-.2a1.7,1.7,0,0,1-.1-.7C104.4,153.6,104.4,153.3,104.4,153.3Zm63.9-.1a.9.9,0,0,1,.1.5,1.7,1.7,0,0,0-.1.7h0c-.3,0-.5-.1-.4-.4a2.8,2.8,0,0,0,.1-.9Z" style="fill:#0dbd95"/><path d="M82.2,31.9h-.8c-.1-.1-.1-.1-.1-.2h-.1l.9-.3V32Z" style="fill:#749bef"/><path d="M175.1,31.3c0,.1.1.3,0,.4l-.2.4-.3-.3-.2-.5Z" style="fill:#608ded"/><path d="M115.2,138.6c-.8-.1-.1-.6-.4-.9h.5v.8Zm42.2-.6h.5c-.3.3.4.8-.4.9a1.1,1.1,0,0,0-.1-.8Z" style="fill:#0dbd95"/><path d="M177.4,116.4c.2-.3.2-.3.8-.3s.1-.3.1-.5.5.3-.1.8Z" style="fill:#5786ec"/><path d="M186.2,116.2V116l.4-.5c.5.2.4.5.3.9Z" style="fill:#3d73e8"/><path d="M97.1,31.8l-.5-.6h1.1a.4.4,0,0,1,.1.3h-.1a.5.5,0,0,1-.2-.4C97.6,31.3,97.1,31.8,97.1,31.8Z" style="fill:#5786ec"/><path d="M182.8,116.1c-.2-.6.2-.6.6-.4l-.4.6a.2.2,0,0,1-.2-.2Z" style="fill:#497cea"/><path d="M109.4,128.8l.5-.3c0,.2.1.3.1.5h0l-.7.2C109.3,129,109.3,128.9,109.4,128.8Zm54.1.5-.7-.2a.9.9,0,0,0,.1-.5l.5.3C163.5,129,163.5,129.1,163.5,129.3Zm-58.3,16.6c.5.4.3.6-.1.9v-.2h0a.8.8,0,0,1,.1-.7Z" style="fill:#0dbd95"/><path d="M82.2,31.7v-.4h.6v.5Z" style="fill:#3d73e8"/><path d="M81.3,32a.6.6,0,0,0-.1.4c-.1-.1-.3-.2-.3-.3s.1-.3.1-.4h.1C81.2,31.7,81.2,31.8,81.3,32Z" style="fill:#497cea"/><path d="M146.9,31.2a.9.9,0,0,1,.1.5h-.2l-.3-.6Z" style="fill:#3b72e8"/><path d="M144.9,31.2c0,.2-.1.4-.1.6h-.2a1.3,1.3,0,0,1-.1-.6Z" style="fill:#4e7feb"/><path d="M112.4,31.5c-.3-.1-.6.2-.6-.4h.6Z" style="fill:#3b72e8"/><path d="M154.1,31.2c-.2.6-.5.2-.8.1Z" style="fill:#4e7feb"/><path d="M104.6,147.3c.3.3.3.5-.1.6A1.3,1.3,0,0,0,104.6,147.3Z" style="fill:#0dbd95"/><path d="M117,31.2q-.3.6-.6,0Z" style="fill:#3b72e8"/><path d="M104.4,153.5a1.7,1.7,0,0,1,.1.7l-.3-.6C104.3,153.7,104.3,153.6,104.4,153.5Zm63.9.9a1.7,1.7,0,0,0,.1-.7h.2Z" style="fill:#0dbd95"/><path d="M144,31.2l-.2.3-.3-.3Z" style="fill:#4e7feb"/><path d="M130.6,31.3a.9.9,0,0,1-.1.5h-.1l-.2-.5Z" style="fill:#3b72e8"/><path d="M154.8,31.2c-.1.1-.1.3-.2.4h-.3v-.4Z" style="fill:#4e7feb"/><path d="M113.5,31.2a.4.4,0,0,0-.1.3l-.2-.3Z" style="fill:#3b72e8"/><path d="M140.5,146.8h-.4l.4-.2Z" style="fill:#0dbd95"/><path d="M120,31.5v-.3h.1C120,31.4,120,31.4,120,31.5Z" style="fill:#6791ed"/><path d="M105.8,142.5Z" style="fill:#0dbd95"/><path d="M81.3,32c-.1-.1-.1-.3-.2-.4s.1,0,.1-.1h.1Z" style="fill:#749bef"/><path d="M126.5,31.2l-.3.2Z" style="fill:#6791ed"/><path d="M142.4,31.2Z" style="fill:#3b72e8"/><path d="M104.9,146.4h0v0Z" style="fill:#0dbd95"/><path d="M130.7,31.2h0Zm44.3.1Zm-71.4-.1c0,.1,0,.1.1.1h-.1c0-.1-.1-.1-.1-.2Z" style="fill:#3b72e8"/><path d="M115.4,137.1Z" style="fill:#0dbd95"/><path d="M175.2,108.7h-.3l.8.7-1.1.6v-.2l.5-.2-.3-.4c-.1-.1-.3.1-.4,0s-.4-.2-.4-.4a.9.9,0,0,1,.1-.7h1.3v.5Z" style="fill:#608ded"/><path d="M175.2,108.7v-.5h1.7c0,.2.1.4.1.6h-1.8Z" style="fill:#749bef"/><path d="M172.2,108.5l-.3.3c-.4,0-.9.1-.8-.5Z" style="fill:#608ded"/><path d="M180.2,108.2l.2.5H180a.9.9,0,0,1-.1-.5Zm1.2.2c0,.2-.1.3-.1.4s-.1,0-.1.1l-.2-.5c.2-.1.3,0,.4,0Z" style="fill:#749bef"/><path d="M173,108.3l-.2.3a.4.4,0,0,1-.1-.3Z" style="fill:#608ded"/><path d="M177.7,108.2Z" style="fill:#749bef"/><path d="M172.3,108.2Z" style="fill:#608ded"/><path d="M185.1,115.6l-1.2.3a2.8,2.8,0,0,1-.1-.9l.6-.2h.8l.3.3v.4Zm-6.9-.2-1.4.6.5-.9a3.4,3.4,0,0,1-.1-1h.2c.1.7.6.8,1.2.9Z" style="fill:#5786ec"/><path d="M185.2,115l-.6-.5,1.4-.5c-.3.2-.2.8-.8,1Z" style="fill:#5786ec"/><path d="M191,115.8c-.1.1-.3.2-.4.4l-1.1-.2a2.1,2.1,0,0,1,.4-.6l.6.4.3-.5.2.2C190.9,115.5,191,115.7,191,115.8Z" style="fill:#cedbf9"/><path d="M121.8,112.1c-.1.7-.3.8-1.1.2Z" style="fill:#5b62ac"/><path d="M189.4,109.6l.8-.2.4.4C190.1,109.8,189.6,110.3,189.4,109.6Z" style="fill:#749bef"/><path d="M186.6,115.5l-.4.5-.5-.8h.5l.4.2Z" style="fill:#94b2f2"/><path d="M182.6,108.8v.6l-.2.3c-.1.1-.2,0-.2-.1a.4.4,0,0,1-.1-.3l.3-.6Z" style="fill:#608ded"/><path d="M182.3,115.8Z" style="fill:#497cea"/><path d="M189.4,109.6l-.2-.2h.1c0,.2,0,.3.1.3Zm-13.2-.9c0,.1-.1.1-.1.2v-.2Z" style="fill:#749bef"/><path d="M182,115.2" style="fill:#aac2f5"/><path d="M192.7,110" style="fill:#749bef"/><path d="M140.1,31.2h.4c.1.3.1.6-.3.7l-.3.5c-.9-.9-.9-.8-1.7-.3s-1.7-.4-1.9,0l-1.4-.2c-.1-.2-.4-.4.1-.7h2.8l1.9.4C139.9,31.8,140.2,31.8,140.1,31.2Zm-3.8.1Z" style="fill:#5b62ac"/><path d="M95.2,32.3l.7.6H94.8Z" style="fill:#497cea"/><path d="M109.6,32.1l.3-.8.5.7Z" style="fill:#94b2f2"/><path d="M163.7,31.8h1.2V32h-1.2Z" style="fill:#6791ed"/><path d="M154.4,31.5h.3c-.1.2-.1.5-.2.6s-.3,0-.5-.1,0-.1-.1-.2S154.2,31.7,154.4,31.5Z" style="fill:#5786ec"/><path d="M82.7,31.7h.1l.3.4-.5.4Zm9.4,1a.4.4,0,0,1,.1.3l-.2.2v-.3C92,32.8,92,32.8,92.1,32.7Zm4.4.6Zm-14.7,0Zm15.1-1.4h.3a.2.2,0,0,0-.2.2A.4.4,0,0,1,96.9,31.9Zm-11.4.9h0Z" style="fill:#497cea"/><path d="M82.2,31.7h.4l-.4.2Z" style="fill:#6791ed"/><path d="M91.9,32.1l.4-.3Zm-9.4,1c-.1,0-.1,0-.1.1h-.1c.1,0,.1,0,.1-.1S82.5,33,82.5,33.1Zm12.7-.8h0Zm-9.5.5h.2c-.1,0-.1.1-.1,0Z" style="fill:#497cea"/><path d="M123.4,32Z" style="fill:#6791ed"/><path d="M89.8,32.1c0,.1-.1.1-.1.2h-.1C89.8,32.2,89.8,32.1,89.8,32.1Z" style="fill:#497cea"/><path d="M109.4,32.2Z" style="fill:#94b2f2"/><path d="M81.3,31.8v-.2c.1.1.1.1.1.2Zm1.9,0c0-.1.1-.1.1-.2s.1.1.1.2Z" style="fill:#497cea"/><path d="M117.5,32" style="fill:#5786ec"/><path d="M143.9,32" style="fill:#4e7feb"/><path d="M139.6,135.7l-.2-1.8c.6.5.3,1.2.4,1.7Zm.5,11.1v.9c-.1,0-.2,0-.2.1l-.5-.5.2-.4Zm.2-24.8-.2.3c-.1-.1-.1-.1-.1-.2ZM104,151.9v-.2l.6-.2c.2.3.4.7.8.3l-.2,1.3h-.5a2.2,2.2,0,0,0,.1-.8l-.8-.3Z" style="fill:#0dbd95"/><path d="M106.7,144l-.5.2.4-1.4h.4A2.7,2.7,0,0,1,106.7,144Zm-1.4,9.2h.7l-.8,1.2v-1.3Zm9.9-16.8-.5.8h-.2l.3-.9Zm-2.1-.6.6-.5.3.2-.6.5Zm-8.5,15.7-.6.2c0-.2.1-.4.1-.6h.3l.3.2c-.1,0-.1.2-.1.2Zm4.3,2.7c-.1-.2-.2-.3-.2-.5l.6-.3h.1l-.5.7Zm.8-13.1-.5.4h-.1l.3-.8.3.5Zm-2.3.1a1.7,1.7,0,0,1-.1-.7h.3l.2.7Z" style="fill:#0dbd95"/><path d="M104.6,151.3h-.1l.5-.2C105.2,151.3,105.2,151.3,104.6,151.3Zm3.9-9.4-.4.2H108l.3-.2c.2-.1.2,0,.2.1ZM110,129h.4v.2Zm-2.9,11.7c0,.1,0,.1-.1.2h-.1v-.2Zm-.1,5.1c0-.1-.1-.1,0-.1h.1c0,.1.1.1,0,.1S107,145.7,107,145.8Zm0-2.9Zm-.8,7.1ZM117,130.4h-.2c0-.1.1-.1.1-.2Zm51.8,21.4v.2l-.3.3H168v.9h-.5V152c.4.3.6,0,.8-.4Zm-9.6-31.6-.2-.5h1.4c-.1.2-.1.5-.2.7Zm7.3,22.8v1.3h-.3a2,2,0,0,1-.3-1.1h.7Z" style="fill:#0dbd95"/><path d="M166.5,145.4c.5-.2.2.1.2.3l-.2.8-1,.4c.3-.3.1-.8.7-.8Zm1,7.9v1.2l-.8-1.2Zm-9.9-16.9c.6.1.8.4.6,1l-.3-.4A.7.7,0,0,1,157.6,136.4Zm1.9-.3-.7-.4.2-.3.6.4A.4.4,0,0,1,159.5,136.1Zm9.3,15.7-.6-.2v-.3l.3-.2h.3Zm-4.7,2-.2.5-.6-.7h.1l.7.3Z" style="fill:#0dbd95"/><path d="M163.6,141.6l-.5-.4.4-.5.3.9Zm4.5,9.8h0c-.2-.1-.6.2-.5-.4l.5.2c.1.1.1.1,0,.2Zm-3.7-9.6.4.2h-.5Zm-1.6-12.7h0Zm-5.2,8.2Zm8.2,5.7Zm.8,7.3Zm-10.7-19.9v.2h-.2Z" style="fill:#0dbd95"/><path d="M135.9,29.2" style="fill:#b1472b"/><path d="M119.4,119.6c0,.1,0,.1-.1.1s-.1,0-.1-.1h.1C119.4,119.4,119.4,119.5,119.4,119.6Z" style="fill:#0dbd95"/><path d="M140.1,31.2c.1.5-.2.5-.5.4S139.8,31.2,140.1,31.2Z" style="fill:#3b72e8"/><path d="M133.5,29.4" style="fill:#ed5f37"/><path d="M189,115.9Z" style="fill:#cedbf9"/><path d="M168.7,151.2h-.3l-.6-.7.5-.2a2.1,2.1,0,0,1,.4.6c.1.2.1.2,0,.3Zm-1.5-1.8v.5H167c0-.2.1-.3.1-.5Zm.9,2Zm-1.5-1.1Z" style="fill:#0dbd95"/><path d="M85.2,31.8h.2l.2.2Z" style="fill:#3b72e8"/><path d="M104.4,151.1h-.3v-.3l.4-.6.4.2Z" style="fill:#0dbd95"/><path d="M104.6,151.1h.1l-.3-.2Zm1.6-1.1Z" style="fill:#0dbd95"/><path d="M115.6,31.5l-.3.2h-.1l.3-.2Zm.4.5Z" style="fill:#3b72e8"/><path d="M185.1,115.6h.4l-.2.5h-.1A.9.9,0,0,1,185.1,115.6Z" style="fill:#94b2f2"/><path d="M185.5,115.6h0Z" style="fill:#94b2f2"/><path d="M185.7,115.5Z" style="fill:#5786ec"/><path d="M143.3,31.8h-.6v-.2h.6C143.4,31.8,143.4,31.8,143.3,31.8Z" style="fill:#3b72e8"/><path d="M91.8,31.4Z" style="fill:#fefefe"/><path d="M91.7,32h0Z" style="fill:#3b72e8"/><path d="M191,115.8a.4.4,0,0,1-.1-.3h.3l-.2.2Z" style="fill:#3d73e8"/><ellipse cx="113.7" cy="31.8" rx="0.2" ry="0.1" style="fill:#3b72e8"/><path d="M103.7,31.3v.2h-.1Z" style="fill:#3b72e8"/><path d="M104,151.9l.9.3a2.2,2.2,0,0,0-.1.8h-.2l-.5-.6A.9.9,0,0,1,104,151.9Zm.4,1.4Zm63.6-1h.3l.2.4-.3.4H168v-.8Z" style="fill:#0dbd95"/><path d="M168.5,152.4l.3-.3c.2.2.2.4-.1.4Z" style="fill:#0dbd95"/><path d="M168.5,152.4v.2a.4.4,0,0,0-.1.3l-.2-.4h.3Z" style="fill:#0dbd95"/><path d="M176.2,108.7Z" style="fill:#3d73e8"/><path d="M136.3,31.3Z" style="fill:#b1472b"/><path d="M168,152.3v0Z" style="fill:#0dbd95"/><path d="M117.5,66.3c.1.1.3.2.4.1s0-.2-.1-.3h0c-.3-.3-.4-.5,0-.9s-.1-.2-.2-.2a2.7,2.7,0,0,1,.9-1.2c.3.1.5.4.9.1s-.1.9-.5,1.2-.4-.3-.6-.1.1.4.2.5-.2.4.1.6,0,.4.4.3.2.5.3.7-.5-.6-1-.5.9.6.2,1,0-.3-.1-.4-.3-.5-.6-.6S117.4,66.6,117.5,66.3Z" style="fill:#fcefed"/><path d="M118.1,61.1c0-.2.2-.4-.1-.6s.2-.1.2-.3.7.4.7.5a.2.2,0,0,0,.2.2c.1,0,.3.3.2.6s-.5.3-.8.4-.3-.3-.3-.5,0-.1-.1-.3Zm.5,2.8-.9,1.2h0c-.2.1-.3.1-.3-.1v-.7c0-.2-.1-.5.4-.5h.3c.1-.2.3-.4.5-.2S118.5,63.7,118.6,63.9Z" style="fill:#fdf7f6"/><path d="M117.1,68.8c.4.1.5.4,1,.4s.5.8.8,1.1-.3.4-.5.5-.3-.2-.2-.3a.8.8,0,0,0-.4-1A1.2,1.2,0,0,1,117.1,68.8Zm21.7,22.5c.4-.1.6.4,1,.3s0,.1.1.2-.1.2-.2.1-.8-.5-.8.3h-.2a.4.4,0,0,1-.2-.5c.1-.1-.1-.5.3-.5Z" style="fill:#fdf2f1"/><path d="M117.5,66.3a.6.6,0,0,1,.1.4.7.7,0,0,0-.6.2c.4.1.6.3.4.8s-1-.2-.6-1A.8.8,0,0,1,117.5,66.3Zm.3-4.8c-.3-.3-.4-.2-.6.1s-.4-.4-.2-.8a.4.4,0,0,1,.7.1A1.3,1.3,0,0,0,117.8,61.5Z" style="fill:#fdf4f3"/><path d="M118.6,65.6c-.4.1-.4-.2-.5-.4s.2-.4.4-.4.5,0,.5.4h-.1C118.6,65.2,118.7,65.5,118.6,65.6Z" style="fill:#fdf7f6"/><path d="M161.6,55.4c-.4-.1-.7.4-1.1-.1s-.1-.2.1-.3A.7.7,0,0,1,161.6,55.4Z" style="fill:#fdf4f2"/><path d="M139,84a1.5,1.5,0,0,1,1.4.6C139.9,84.5,139.2,84.6,139,84Z" style="fill:#fdf1f0"/><path d="M129.1,55.4c-.3-.3-.4-1-1-.9C129,54.4,129.2,54.5,129.1,55.4Zm9.6,47c-.3-.3-.3-.3-.6-.2s.1-.3.2-.5-.1-.4.2-.3.3.2.3.4-.2.3-.1.6Z" style="fill:#fdf3f2"/><path d="M118.2,62.2c.4.2.2.5.2.8s-.1.3-.3.2-.2-.2-.1-.4A1.4,1.4,0,0,0,118.2,62.2Z" style="fill:#fdf7f6"/><path d="M137.3,92.6c.2-.2.4-.3.5-.2a1,1,0,0,0,.7.4c0,.1-.1.1-.1.2h-.3C138,92.8,137.7,92.7,137.3,92.6Zm-10.6-2.9c.2.3.4.5.2.9s-.2.1-.2,0Z" style="fill:#fdf5f4"/><path d="M117.4,64.9h.3l-.5.6C117.3,65.4,116.7,64.9,117.4,64.9Z" style="fill:#fcefed"/><path d="M125.9,88.2c-.3,0-.6.2-.8-.2s.1-.2.1-.2A1,1,0,0,1,125.9,88.2Z" style="fill:#fdf6f5"/><path d="M139.3,85.8c-.1.1-.2.3-.3.1s-.2-.2-.1-.4.1-.3.3-.2S139.2,85.7,139.3,85.8Z" style="fill:#fdf4f2"/><path d="M127.8,57.6c.1.3.3.5.1.7s-.3-.1-.4-.2S127.7,57.8,127.8,57.6Z" style="fill:#fdf8f7"/><path d="M118.3,67.4c.3.1.1.3.1.4l-.3.4C118.5,68,117.7,67.5,118.3,67.4Z" style="fill:#fdf9f8"/><path d="M125.2,94.9c.3.1.4.2.4.4s-.1.2-.2.1S125.1,95.1,125.2,94.9Z" style="fill:#fdf7f6"/><path d="M123.5,68c.2,0,.1.2.1.2s0,.3-.2.3a.2.2,0,0,1-.2-.2Q123.4,68,123.5,68Z" style="fill:#fdf8f8"/><path d="M122.8,65.3c-.2-.6.2-.5.5-.6Z" style="fill:#fdf9f8"/><path d="M138.6,84.4c-.2-.1-.4.1-.4-.3l.2-.2C138.6,83.9,138.5,84.2,138.6,84.4Z" style="fill:#fdf1f0"/><path d="M139.3,85.8c.1,0,.2.2.3.1s-.1-.3.2-.3.1.2.1.2l-.3.3a.3.3,0,0,1-.3-.3Z" style="fill:#fdf4f2"/><path d="M119.5,65.7c-.2,0-.4-.1-.4-.3s0-.1.1-.1S119.5,65.5,119.5,65.7Z" style="fill:#fcefed"/><path d="M173.5,96a.2.2,0,1,1-.2-.2h0A.2.2,0,0,1,173.5,96Z" style="fill:#fdf8f7"/><path d="M117.7,57.8c0,.1-.1.1-.2.1h.2Z" style="fill:#fefdfd"/><path d="M139,84.5h-.2l-.2-.2h.2C138.9,84.3,138.9,84.4,139,84.5Z" style="fill:#fdf1f0"/><path d="M118.6,65.6c0-.2-.1-.3.2-.4s.1.1.1.2Z" style="fill:#fcefed"/><path d="M107.6,96.5V56.4c0-.2,0-.3.1-.4h14.2a7.7,7.7,0,0,1,.2,1.5c0,.2.1.7-.6.4s.5.8.5,1.1.2,2,.2,3v5a2.4,2.4,0,0,1-.2.8l-2-1.2L117.6,65c0-.2.1-.3.1-.5a2,2,0,0,0-.8-1.9,2,2,0,0,0-2.4-.1,2.5,2.5,0,0,0-.8,2.7,2,2,0,0,0,2,1.4l1.4-.5,4,2.5.4.4c-.1.3-.2.8-.1.9a.7.7,0,0,1-.2.9l.5.3-.6.7h.2a4,4,0,0,1,.3,1.5c-.1.8-.2.8.5.8a1.3,1.3,0,0,1-.1.6l-.4.6-.3-.5c-.4.6-.5,1,.5,1.2l-.6.4.4.9a2.2,2.2,0,0,0-.5.8v.3h.5l-.2.9-.6.6H122v1l-.4-.5-.4.3.2.3h0a.6.6,0,0,1,.1.4l.5.3V82l-1,.4c-.3.2-.4.4,0,.5s-.3.6-.2.7l1.2,1.6v.3h-.2l-1.1-.8a2.8,2.8,0,0,0,.1.9h.5a1.3,1.3,0,0,1,.1.6h.6l-.3.4c-.3-.3-.6-.1-.6.2a3.3,3.3,0,0,0,0,1.4h.5c-.1.4-.2.8.4.9s-.9.3-.9.9l1.1.3v.2l-1,.3c0,.4.1.6.6.5s.3,0,.5.1v.2l-1.4.9c.1.1.2.3.3.2s.4.2.4.4v.3a.9.9,0,0,1,.1.5,2.4,2.4,0,0,1,.2.8V95l-.3.6-.3.4a1.2,1.2,0,0,1-.2,1.4h.5l.3.2v.2l-1.2.2h-7.3a14.1,14.1,0,0,0-2.9-.1l-.5-.2.5-.6.2-.7-.9.5a2.2,2.2,0,0,1,.1.8l-1.9.2c0-.2-.1-.4-.1-.6s.5.4.7-.1a.4.4,0,0,0-.1-.5h-.3c-.6.2-.7,0-.7,0Zm3.5-1.5h-.5c.3.7.3.7.7.5a1.4,1.4,0,0,0-.2-.6l.2-.2h-.1C111.3,94.9,111.2,94.9,111.1,95Zm-.8-.2a.4.4,0,0,1-.1-.3l-1,.3.4,1h.2l-.2-.5.7-.4Zm1.1-3h-.2V93h.2Zm-2.3,4.5-.2.2v.2h.2A.3.3,0,0,0,109.1,96.3ZM121,94Z" style="fill:#fac32d"/><path d="M152.9,71.4V60.6H158l.4.3c.1.1.2.2.2.3l-.4.5.6.4a2.2,2.2,0,0,1-.1-.8l.5-.6h.8a2.4,2.4,0,0,0-.2.8h1a2,2,0,0,0,.4.8c.6-.2.4-.5.3-.9l-.6.2.2-.3-.6-.5h7.3l-.3.9.2.3c.2.1.8-.1.6.5l-.9,1.1a3,3,0,0,0,.8.8,1.3,1.3,0,0,1,.1.6l-.8-.5c-.1-.1-.2.1-.3.1l.2.2-.5.6h1.2a6.8,6.8,0,0,1,.2,1.4V91.3c0,.6-.2,1.2-.2,1.8s.2.6.2,1a1.5,1.5,0,0,1-.5,1.4,2.2,2.2,0,0,1,.1.8h-.5l.5.6-.9.3a.8.8,0,0,1,.2.4v.2h-.1c-.2,0-.5-.4-.6.2H166a1.2,1.2,0,0,1-.2-1c.4-1,.2-1.3-.6-1.6s-.8,0-.6.5a8.3,8.3,0,0,1,.4,1.5.8.8,0,0,1-.2.4h-.2v-.3h-.2l-.3.5H153.4l-.9-.2V72.6l.3-.2,6.2-2.5a1.9,1.9,0,0,0,2.2.6h.3l1-1.2a2.2,2.2,0,0,0-1.3-2.8,1.9,1.9,0,0,0-2.5,1.3c-.1,0-.1.1-.1.2s-.1.6-.2,1l-5.5,2.5Zm12.2,21c.3-.4,1.2.1,1-.9s-1-.3-1,.9Zm-.3,2.4.2.2.6-.4-.2-.2Zm.2-1.7v.3h.5v-.2Zm.1-2.3v-.2h-.8v.2Zm.1,3V94l.5-.2c0-.1-.1-.1-.1-.2l-.5.2Zm.2-3.2v.2l.3-.2v-.2Zm.6,2.2h-.3V93l.2-.2Z" style="fill:#fbc32e"/><path d="M130,73V70.3h9.1c-.1.6.5.2.5.3l.2.9h.2l.2-.6h.5l.2.5.9-.2.8.4a.4.4,0,0,0-.1.3l-.4.4-.6.3c.4.4.5.5.2.8h-.5l-.3.2c.1.1.1.3.2.3a2.6,2.6,0,0,1,1.1,1.2h-.8c-.1,0-.2.2-.2.3l.3.3h.8c0,.1,0,.2.1.2l-1.5.7-1.5.7c-.7-1.4-1.5-1.8-2.6-1.4s-.9.8-1.4,1.1l-2.7-1.6Zm9.7.2v-.9h-1v.2ZM131.3,71l-.9,1.1h.1l.9-.5A1.3,1.3,0,0,0,131.3,71Zm9.8,1.2h.2l.2-.5h-.2Zm-.1.2h-.2c-.1.1-.1.2-.1.4h.1Z" style="fill:#1abd9a"/><path d="M95.7,59v-.9c.1-.1.2-.2.2-.3h-.2V46.9h.7V97.3c0,.5-.1,1,.8.6s.8.1,1.2.1l-.3.9H95.7V76.5c0-.3.1-.5.1-.8l.2-1.5h-.3v-.6c.4-.3.3-.6,0-.9v-.9c.3-.1.3-.2.1-.4s-.1-.3-.1-.5H96l-.2-.2V69.5c.4-.3.2-.5,0-.8h0c.3-.3.4-.5.1-.8a.9.9,0,0,0-.1-.5l.2-.2h-.3V65.1c.4-.3.2-.6.1-.9a1.1,1.1,0,0,1-.1-.5l.3-.4h-.4V61.9c.3-.2.3-.4,0-.5v-.6c.4-.1.3-.3.1-.4s0-.2-.1-.2.3-.4,0-.5v-.4h.2C95.8,59,95.8,59,95.7,59Z" style="fill:#4869b1"/><path d="M139.3,76.8l1.5-.7,1.5-.7c.5-.2,1.3,0,1.7-.6h.3l3.6-1.4,3.2-1.4,1.2-.5h.6l6-2.7.5,1-6.2,2.5-.3.2-7,2.8-1.7.9a4.1,4.1,0,0,0-2.4.8l-2.3.8A1.6,1.6,0,0,1,139.3,76.8Z" style="fill:#4379e2"/><path d="M130,73l2.9,2,2.7,1.6-.2.6a6,6,0,0,1-1.9-.6l-2.4-1.4-1-.6-1.3-.9-6.7-4.2-.8-.5c-.2-.1-.3-.3-.4-.4l-4-2.5a4.1,4.1,0,0,0,.5-.9l2.4,1.6,1.9,1.2.5.3,1.9,1.4,2.9,1.8.9.5,2.1,1Z" style="fill:#4279e4"/><path d="M107.6,98l1.9-.2c.2.1.3.3.5.2a14.1,14.1,0,0,1,2.9.1h5.5l.2.8h-13a.6.6,0,0,0,.1-.4c.5.3.4-.3.7-.4Z" style="fill:#3d60ac"/><path d="M154.4,98h1l.5.8H145.1c.1-.2.2-.3.2-.5h-.5V98h.8l.3.6h.2l-.2-.5h1.3v.3h.1a.4.4,0,0,0-.1-.3h3.5l2-.2.9.2.4.5.4-.7Zm-35.8.9-.2-.8h1.8l1.2-.2H128c.3.3.2.6.1.9h-7.6a1.3,1.3,0,0,0-.1-.6l-.2.6h-.8v-.2l-.2.2h-.6Zm.6-.6h0Z" style="fill:#3a5eab"/><path d="M156,98.9l-.5-.8h9c-.6.2-.3.5-.1.9Zm11.9-.9h7.9v.8h-7.4c0-.3-.3-.6-.5-.9Z" style="fill:#3d60ac"/><path d="M140,98.9h-7.6c0-.2,0-.3-.1-.4l-.3-.3,1.8-.2h5.8l.4.7Z" style="fill:#375ba9"/><path d="M98.2,98.9l.3-.9h.4l.5.3c.4.1.9.2,1-.4H102c.1.6.3.3.5.1h1.7l1.1.2c.2.6-.5.3-.6.6S98.2,98.9,98.2,98.9Z" style="fill:#3d60ac"/><path d="M142.1,72.1l.3-.3h.1c.1,0,.2.1.2,0s.7-.8,1.3-.5.4.9.4,1.5-.1,1.1-.1,1.7-.1-.1-.1-.2a.8.8,0,0,0-.2.4c-.4,0-.2-.8-.8-.6l.2-.3.4-.2H143l.4-.7Zm1.5-.3h0c0-.1-.1-.1-.1-.2s-.1,0-.1.1h0C143.6,71.6,143.6,71.7,143.6,71.8Z" style="fill:#39bd98"/><path d="M167.9,98l.6.9h-4.3c-.2-.3-.5-.6.1-.9h1.9l.6-.2h.2l.9.4Z" style="fill:#4869b1"/><path d="M131.9,98l.3.3a.6.6,0,0,1,.1.4h-4.4c.2-.3.3-.6-.1-.9h4.1Z" style="fill:#3d60ac"/><path d="M141.7,71.1l-.9.2-.2-.5H140l-.2.6h-.2l-.2-.9c-.1-.1-.6.3-.5-.3H142v.2C142.1,70.7,141.9,70.9,141.7,71.1Z" style="fill:#2abe9c"/><path d="M144.9,98.4h.5c-.1.2-.2.3-.2.5h-3.8v-.5l.5-.2h2v.6l.6-.2Z" style="fill:#2f539f"/><path d="M141.7,71.1l.5-.5h.4l.3-.4h1.3l-.2,1.2c-.6-.2-.9.3-1.3.5h-.2a.4.4,0,0,0,.1-.3Zm1.4-.6c.1.6-.4.2-.6.4s.5.3.6-.4Z" style="fill:#44bc96"/><path d="M141.4,98.3v.5h-1.5l-.5-.8,1.4-.2.4.2.2.2Z" style="fill:#3d60ac"/><path d="M167.9,64.2l-.8-.8.9-1.1v1.9Z" style="fill:#fbcc4e"/><path d="M104.8,98.8c.1-.3.9,0,.6-.6l-1.1-.2h2.1c-.2.1-.2.6-.7.4a.6.6,0,0,0-.1.4A1.1,1.1,0,0,1,104.8,98.8Z" style="fill:#4869b1"/><path d="M167.2,64.7l-.2-.2h.3l.8.5a.6.6,0,0,0-.1.4h-1.2Z" style="fill:#fbcc4e"/><path d="M100.4,98c-.2.5-.6.5-1,.4l-.5-.3Z" style="fill:#4869b1"/><path d="M160.7,61.4h-1c.1-.2.1-.5.2-.8h.4l.6.5C160.8,61.1,160.7,61.2,160.7,61.4Z" style="fill:#fcd467"/><path d="M107.6,96.5h.3c.4.1.5.3.4.6s-.5.2-.7.1S107.6,96.8,107.6,96.5Z" style="fill:#fde7ab"/><path d="M95.7,74.4H96l-.2,1.5C95.8,75.8,95.7,74.4,95.7,74.4Z" style="fill:#6783be"/><path d="M158.6,61.2c-.1-.1-.2-.2-.2-.3l-.4-.3h1.2l-.5.6Z" style="fill:#fcd467"/><path d="M167.4,61.7c-.1-.1-.2-.2-.2-.3l.3-.9h.3l-.3,1C167.5,61.6,167.5,61.6,167.4,61.7Z" style="fill:#fbcc4e"/><path d="M167.5,61.6l.3-1a2.4,2.4,0,0,1,.2.8Z" style="fill:#fbc32e"/><path d="M95.8,72.8c.3.3.4.6,0,.9Zm0-8.6c.1.3.4.6-.1.9A2.8,2.8,0,0,0,95.8,64.2Z" style="fill:#6783be"/><path d="M95.7,63.1h.4l-.3.4C95.7,63.5,95.7,63.4,95.7,63.1Zm.1,4.8c.4.3.2.5-.1.8S95.8,68.1,95.8,67.9Z" style="fill:#6783be"/><path d="M102.6,98.1c-.2.2-.5.5-.5-.1Z" style="fill:#4869b1"/><path d="M142.2,70.3Z" style="fill:#44bc96"/><path d="M95.7,68.8c.2.3.4.5,0,.8Z" style="fill:#6783be"/><path d="M95.7,61.3c.3.2.3.4,0,.5Zm.1-1.8c.3.2.3.4,0,.5Zm-.1-1.8h.2c-.1.1-.2.2-.2.3Z" style="fill:#8ba0cd"/><path d="M120.1,98.9c.1-.1.1-.3.2-.6s.1.4.1.6Z" style="fill:#3d60ac"/><path d="M95.8,60.3c.2.2.3.3-.1.4A.6.6,0,0,0,95.8,60.3Z" style="fill:#8ba0cd"/><path d="M142.6,70.3h.3l-.3.4Z" style="fill:#2abe9c"/><path d="M95.8,71.5c.3.2.2.3-.1.4A.6.6,0,0,0,95.8,71.5Z" style="fill:#6783be"/><path d="M144,74.7a.8.8,0,0,0,.2-.4c0,.1.1.1.1.2v.2Z" style="fill:#2abe9c"/><path d="M103.7,98Z" style="fill:#4869b1"/><path d="M95.8,67l.2.2-.2.2C95.7,67.3,95.7,67.2,95.8,67Zm-.1,3.7.2.2h-.2Z" style="fill:#6783be"/><path d="M119.1,98.8l.2-.2v.2a.2.2,0,0,1-.3,0h.1Z" style="fill:#3d60ac"/><path d="M144.5,98.8Z" style="fill:#3a5eab"/><path d="M95.7,59Z" style="fill:#8ba0cd"/><path d="M167.1,97.8h0l-.2-.2Z" style="fill:#fac63c"/><path d="M158.3,60.6Z" style="fill:#fbc32e"/><path d="M117.4,65a4.1,4.1,0,0,0-.5.9,3.4,3.4,0,0,1-1.4.5,1.9,1.9,0,0,1-2-1.4,2.2,2.2,0,0,1,.8-2.7,2,2,0,0,1,2.4.1,2.1,2.1,0,0,1,.8,1.9A1.7,1.7,0,0,0,117.4,65Z" style="fill:#31539e"/><path d="M122,69.4c-.1,1.5-.1,3-.1,4.4s-.6,0-.5-.8a4,4,0,0,0-.3-1.5h-.2l.6-.7-.5-.3c.4-.3.6-.4.2-.9s.1-.5.1-.9Z" style="fill:#fbcc4e"/><path d="M122,88.3v3.2h-.5c-.5.1-.6-.1-.6-.5l1-.3v-.2l-1.1-.3c.1-.6.1-.6.9-.9s-.5-.5-.4-.9Z" style="fill:#fcde8c"/><path d="M121.9,74.5v3.2h-.4a.6.6,0,0,0-.1.4h-.5v-.3l.5-.8a3.6,3.6,0,0,1-.4-.9l.6-.4c-1-.1-.9-.6-.5-1.2l.3.5C121.5,75.1,121.9,74.5,121.9,74.5Z" style="fill:#fcd467"/><path d="M121.6,94.9c.4-.1.4.1.2.4a1.1,1.1,0,0,0,0,.8,1.6,1.6,0,0,1-.3,1.6l-.3-.2h-.5c.3-.5.5-.9.2-1.4s.2-.3.3-.4l.3-.6v-.3Z" style="fill:#fcde8c"/><path d="M121.9,83.4v1.8l-1.2-1.6c-.1-.2.2-.5.2-.7h.2a.6.6,0,0,1-.1.4l.2.3h.4c0,.1,0,.1.1.1h0l.3-.2Z" style="fill:#fde7ab"/><path d="M122,88.3h-1.1V86.9c.1-.3.3-.5.6-.2a1.3,1.3,0,0,0-.1.6h.6A.9.9,0,0,0,122,88.3Z" style="fill:#fbcc4e"/><path d="M121.9,91.7l-.2,1.6h-.4c0-.3.1-.6-.4-.4l-.3-.2Zm-.1-5.8c0,.1-.1.2-.1.3h-.5c0-.2-.1-.3-.1-.6h-.5c0-.4-.1-.7-.1-.9l1.1.8C121.7,85.7,121.8,85.8,121.8,85.9Zm-.6-3H121c-.4-.2-.3-.4,0-.5l1-.4v.8Z" style="fill:#fcd467"/><path d="M110.3,94.8l-.6.4.2.5h-.2l-.4-1,1-.3c-.1,0-.1.2,0,.3Z" style="fill:#fac63c"/><path d="M122,79a2.2,2.2,0,0,0-.1.8h-1.2l.6-.6C121.5,79.5,121.7,79,122,79Z" style="fill:#fde7ab"/><path d="M109.5,97.7a2.2,2.2,0,0,1-.1-.8l.9-.5-.2.7h0A1.7,1.7,0,0,0,109.5,97.7Z" style="fill:#fbcc4e"/><path d="M121.9,87.5h-.6a1.3,1.3,0,0,0,.1-.6l.3-.4A3.6,3.6,0,0,1,121.9,87.5Z" style="fill:#fde7ab"/><path d="M122,79c-.2-.1-.4.5-.6,0l.2-.9h.4A1.4,1.4,0,0,0,122,79Zm-.1,1.8v.4l-.6-.3-.2-.3.4-.3Z" style="fill:#fbcc4e"/><path d="M111.4,91.8v1.3h-.2V91.7Z" style="fill:#fac63c"/><path d="M111.1,95c.1.2.1.4.2.6s-.3.2-.7-.5Z" style="fill:#fbcc4e"/><path d="M121.3,81l.6.3v.5l-.5-.3a.6.6,0,0,1-.1-.4Z" style="fill:#fcd467"/><path d="M121.4,94.1h.5l-.3.9A2.9,2.9,0,0,0,121.4,94.1Z" style="fill:#fcde8c"/><path d="M109.1,96.3l.2.3c0,.1-.1.1-.2.1s-.1-.1-.1-.2Z" style="fill:#fbcc4e"/><path d="M121.5,95.1l-.3.6Z" style="fill:#fdfdfd"/><path d="M121.8,85.9c0-.2-.1-.3-.1-.4h.2Z" style="fill:#fde7ab"/><path d="M121.3,93.3h.4l-.4.3Zm-.3.7c.1.1.1.1.1.2h-.2C120.9,94.1,121,94.1,121,94Z" style="fill:#fcde8c"/><path d="M121.3,81.1a.6.6,0,0,1,.1.4C121.4,81.3,121.3,81.2,121.3,81.1Zm-.4-3.2Z" style="fill:#fbcc4e"/><path d="M120.3,98.1Z" style="fill:#3d60ac"/><path d="M111.1,95l.2-.2h-.2Z" style="fill:#fbcc4e"/><path d="M121.9,79.9Z" style="fill:#fde7ab"/><path d="M159.3,69.8l-.5-1c.1-.3.1-.6.2-1a2.1,2.1,0,0,1,2.6-1.5h0a2.2,2.2,0,0,1,1.3,2.8,2.9,2.9,0,0,1-1,1.2l-.4-1.2h-.2l.3,1.3a1.9,1.9,0,0,1-2.3-.6Z" style="fill:#2f539f"/><path d="M166.2,98h-1.7l.3-.5h.2v.3h.2l.2-.4c0-.1-.3-1-.4-1.5s.1-.7.6-.5,1,.6.6,1.6S166,97.6,166.2,98Zm-1.1-5.6c.1-1.2.1-1.2,1-.9s-.8.5-1,.9Z" style="fill:#fac63c"/><path d="M160.7,61.4l.6-.2c.2.4.3.7-.3.9Z" style="fill:#fcd467"/><path d="M154.4,98l-.3.6-.4-.5Zm7.1-27.5-.3-1.3h.2l.4,1.2C161.8,70.3,161.6,70.4,161.5,70.5Z" style="fill:#3d60ac"/><path d="M158.6,61.3a2.2,2.2,0,0,1,.1.8l-.6-.4.4-.5Z" style="fill:#fcd467"/><path d="M164.8,94.8l.6-.4.2.2-.6.4Zm.2-1.7h.5v.2H165Zm.1-2.3h-.8v-.2h.8Zm.1,3,.5-.2c0,.1.1.1.1.2l-.5.2v-.2Zm1.8,4-.6.2c0-.6.3-.2.6-.2Zm-1.6-7.2.4-.2v.2l-.3.2c-.1,0-.1,0-.1-.2Zm.6,2.2h-.2v-.2h.2c-.1.1-.1.2,0,.2Z" style="fill:#fac63c"/><path d="M167.1,64" style="fill:#fbcc4e"/><path d="M165,92.7" style="fill:#fac63c"/><path d="M135.3,77.2l.2-.6a4.9,4.9,0,0,1,1.4-1.1c1.1-.4,1.8.1,2.6,1.4v1a2.1,2.1,0,0,1-2.1,1.9l-.9-.3A2.5,2.5,0,0,1,135.3,77.2Z" style="fill:#2753a3"/><path d="M142.1,72.1l1.4.6-.4.7h.8l-.4.2-.2.3c.5-.1.3.6.8.6s-1.1.5-1.7.6,0-.2-.1-.2h-.8l-.3-.3c0-.1.1-.3.2-.3h.8c-.2-.5-.4-1.1-1.1-1.2s-.2-.2-.2-.3l.3-.2h.5c.3-.3.3-.3-.2-.8a.7.7,0,0,0,.6-.1Zm.4,1.2-.6.2v.2h.8l-.3-.3Zm-.1.7Z" style="fill:#2abe9c"/><path d="M139.7,73.2l-1-.6v-.2h1Z" style="fill:#39bd98"/><path d="M131.3,71l.2.6-.9.5h-.1Z" style="fill:#44bc96"/><path d="M141.1,72.2l.2-.5h.2l-.2.5Zm-.1.2-.2.3c-.1,0-.1,0-.1-.1h0c.1-.1.1-.2.1-.4Zm1.5-.6h0Z" style="fill:#2abe9c"/><path d="M135.3,77.2a2.4,2.4,0,0,0,1.1,2.2,1.9,1.9,0,0,0,2.7-.7,1.6,1.6,0,0,0,.3-.9l2.3-.8,1.4.3c.1-.3.1-.5.2-.8s.6.8,1,.5a.4.4,0,0,0-.1.3l-.4.4h-.4V78h-.6l-.4.2h.4v.3a1.3,1.3,0,0,1,.1.6l.2,1.3c-.9.2-.9.4-.5,1.1a2.5,2.5,0,0,1,.2,1.2v.2c.3.9.2,1.1-.5,1.4l.2.4.4-.3v1.5c0,.1.2.2.2.3l-.2,1.2.8,1,.6-.4v1H144c-.7.2-.9.6-.5,1.1l.3.4h-.2l-.5,1.8h.6l-.4.6.6.7-.5.2.4.6.4-.5v.5h-.1c-.6,0-.6.6-.7,1l-.6-.2c-.1,0-.1,0-.1-.1h.1c.1.6.6.6,1,.8s-.1.3-.2.4l-.5.8c-.1.2-.3.3-.4.4h-1.1l-.6-2.1h-.2l-.2,1.1h.5l-.5,1-1.4.2h-5.5c0-.7.8-.3,1.1-.8h-.6l-.6.2c.1-.5.2-1,.9-.6h.5a1.6,1.6,0,0,1-.4-.7l-.2.4-.6-.4c0-1-.6-.5-1-.6l-.5,1.7.6-.2.4.4.2.5-1.8.2h-1l-.5-.5,1.2-.5c0-.1,0-.2.1-.2h-1.7l.5-.4.8-.3.3-.3-.4-.3h-1.4V95l.8-.8c.5-.2.5-.7.4-1.1s-.6-.3-.9-.2h-.3v-6c0-2.1-.1-4.1-.1-6.2V74.1l1,.6,2.4,1.4A6.6,6.6,0,0,0,135.3,77.2ZM133.8,93h0Zm-2.5-.6h0c-.1.4-.1.4.6.3Zm2,2.4c.4.2.8.2.8-.4l.9.2c-.2-.3-.4-.5-.4-.4S133.4,93.9,133.3,94.8Zm-.8-2.1,1.4-.3C133.6,91.9,132.8,92.1,132.5,92.7Zm8.4,1.3h-.3l-.4.6.6.3V94Zm-9.1-.6h-.2l-.2.4h.1l.3-.4Zm1-.3Zm.1.3v.2l.3-.2c0-.1,0-.1-.1-.1Zm.1,1.8V95h-.3c.2.1.3.1.3.2Zm9.6-17.5c0-.1,0-.1.1-.1h-.1Zm-9.2,15.1h-.2c0,.1,0,.1.1.1s.1,0,.1-.1Zm.2,1.1c.1,0,.1,0,.1-.1h-.1Zm8.9-8.7Zm-9.9,10c-.1,0-.1,0-.1-.1h.1Z" style="fill:#19bc97"/><path d="M144.3,77.1c-.5.2-.8-.1-1-.5s-.1.5-.2.8l-1.4-.3a4.1,4.1,0,0,1,2.4-.8l.2.4h.1Z" style="fill:#39bd98"/><path d="M144.4,98h.5v.3h-.4v-.2h0l-.4-.2Zm1.3,0h.3l.2.5H146Zm1.6.1h.1a.4.4,0,0,0,.1.3h-.1A.4.4,0,0,1,147.3,98.1Z" style="fill:#6783be"/><path d="M119.2,98.3h.2c0,.1,0,.1-.1.1Z" style="fill:#3d60ac"/><path d="M133.8,97.8l-.2-.5h.3l.6-.2h.6c-.3.5-1.1.1-1.1.8S133.8,97.9,133.8,97.8Z" style="fill:#3bbc92"/><path d="M143.6,71.8c-.1-.1-.1-.1-.1-.2h.1v.3Z" style="fill:#44bc96"/><path d="M130.1,96.7h1.6c0,.1,0,.2-.1.2l-1.2.5.5.5h-.8Z" style="fill:#2dbc94"/><path d="M142.6,70.3v.2h-.4v-.2Z" style="fill:#fefefe"/><path d="M140.9,98l.5-1h-.5l.2-1.1h.2l.6,2.1-.5.2h0c0-.2-.1-.3-.1-.5h-.1c0,.2.1.3.1.5Z" style="fill:#44bc96"/><path d="M143,98.1l.4-.4.9-.3-.3.6h-1Z" style="fill:#3bbc92"/><path d="M144.5,98.2v.2l-.6.2V98h.3Z" style="fill:#3a5eab"/><path d="M143.1,70.5c-.1.8-.2.8-.6.4S143.2,71.1,143.1,70.5Z" style="fill:#2abe9c"/><path d="M141.3,98.2c0-.2-.1-.3-.1-.5h.1c0,.2.1.3.1.5Z" style="fill:#19bc97"/><path d="M167.2,64.7" style="fill:#fbc32e"/><path d="M130,92.9h.3c.4-.1.8-.2.9.2s.1.9-.4,1.1h0c0-.6-.4-.3-.7-.4A2.8,2.8,0,0,1,130,92.9Zm0,2.3h1.4c.2,0,.3.2.4.3l-.3.3-.8.3-.5-.5a.8.8,0,0,1-.2-.5Z" style="fill:#3bbc92"/><path d="M121.2,82.9h.8a1.3,1.3,0,0,1-.1.6h-.6l-.2-.3C121.2,83.2,121.2,83.1,121.2,82.9Z" style="fill:#fbc32e"/><path d="M130.8,94.2l-.8.8v-.9Z" style="fill:#3bbc92"/><path d="M130.1,95.7c.2.2.4.3.5.5l-.5.4Z" style="fill:#2dbc94"/><path d="M130.8,94.2H130c0-.1.1-.2.1-.3S130.8,93.6,130.8,94.2Z" style="fill:#19bc97"/><path d="M121.8,78.1h-.4a.6.6,0,0,0,.1-.4l.3.2C121.9,77.9,121.9,78,121.8,78.1Z" style="fill:#fac32d"/><path d="M121.9,77.9l-.3-.2h.4C121.9,77.8,121.9,77.8,121.9,77.9Z" style="fill:#fbcc4e"/><path d="M121.2,83.3l.2.3C121.3,83.4,121.2,83.4,121.2,83.3Zm.5.3h0Z" style="fill:#fcd467"/><path d="M110,97.1" style="fill:#fac32d"/><path d="M143,82.9c-.1-.4,0-.9-.2-1.2s-.4-.9.5-1.1l.4.3c-.1.1-.2.2-.2.3h.2V81c.3-.5.4-1.1-.3-1.4l-.2-.2.5-.5-.5-.5h.3c.1.4.4.3.6.2s.3.1.4.1V79l-.7.4.6.2V81l-.2.2c.3.6-.2.9-.5,1.2l.6.3v1.9H144V84h-.2v-.3l.4-.2v-.2L143,83Z" style="fill:#2dbc94"/><path d="M143.9,84.4h.4l.2,2.8v1.1l-.6.4-.8-1,.5.2.2-1.1c0-.2-.1-.3-.1-.4h-.3l-.2-.3c0-.5.1-.9.1-1.5l-.4.3-.2-.4c.6-.3.7-.5.5-1.4h0l1,.2v.2l-.4.2-.3-.3-.2.2h.4v.3h.2v.3h-.6l.6.5v.2C143.8,84.6,143.8,84.5,143.9,84.4Zm-.5,1h0a1.3,1.3,0,0,0,.1.6h.1l.4-.7Zm1,8.8-.4.5-.4-.6.5-.2-.6-.7.4-.6h-.6l.5-1.8h.2l-.3-.4.8-.9v4.7Z" style="fill:#3bbc92"/><path d="M143,95.6l.6.2c.1-.4.1-1,.7-1h.1v1.7l-.4-.2c-.4-.1-.9-.1-1-.7Z" style="fill:#64b579"/><path d="M144.1,96.4l.4.2v.3l-.2.2h.2V98h-.4l.3-.6-.9.3.5-.8c-.1-.1,0-.3.1-.4Z" style="fill:#95b46d"/><path d="M144.4,89.7l-.8.9c-.4-.5-.2-.9.5-1.1h.2C144.4,89.4,144.4,89.5,144.4,89.7Zm-.1-7.3-.6-.3c.3-.3.8-.6.5-1.2l.2-.2a9.7,9.7,0,0,0-.1,1.7Z" style="fill:#64b579"/><path d="M144.4,78.4H144c-.3.1-.5.3-.6-.2h0l.4-.3h.6Zm-.1.9-.6-.2.7-.4c-.1.1-.1.4-.1.6Z" style="fill:#44bc96"/><path d="M144.4,77.8h-.2v-.4h.2Z" style="fill:#19bc97"/><path d="M144.4,77.5h-.2a.4.4,0,0,0,.1-.3h.1Z" style="fill:#44bc96"/><path d="M144.4,97.1h-.2l.2-.2v.3Z" style="fill:#64b579"/><path d="M144.4,94.9Z" style="fill:#3bbc92"/><path d="M144.4,76.8Z" style="fill:#44bc96"/><path d="M142.5,73.3c.1.1.1.2.3.3H142v-.2Z" style="fill:#1abd9a"/><path d="M141.7,73.2" style="fill:#1abd9a"/><path d="M133.9,97.4h-.3l-.4-.4h0l-.6.2.5-1.7c.3.1,1-.4,1,.6s.4.3.6.4l.2-.4.4.7c-.1,0-.3.1-.5,0A.7.7,0,0,0,133.9,97.4Z" style="fill:#2dbc94"/><path d="M143.1,79.3c.1.1.1.2.2.2a1.3,1.3,0,0,1,.3,1.4h0l-.4-.3-.2-1.3Z" style="fill:#44bc96"/><path d="M133.3,94.8c.1-.8.8-.6,1.2-.7l.4.4-.9-.2C134,94.9,133.7,95,133.3,94.8Z" style="fill:#2dbc94"/><path d="M143.2,86.4h.3a.6.6,0,0,1,.1.4l-.2,1.1-.5-.2A6.1,6.1,0,0,0,143.2,86.4Z" style="fill:#95b46d"/><path d="M132.5,92.7c.3-.6,1.1-.8,1.4-.3Z" style="fill:#2dbc94"/><path d="M140.9,94v.9l-.6-.3.4-.6Z" style="fill:#3bbc92"/><path d="M143.1,78.3l.5.5c-.1.2-.3.3-.5.5l-.3-.6v-.5C142.9,78.1,143,78.2,143.1,78.3Z" style="fill:#44bc96"/><path d="M142.9,78.6l.3.6H143C142.9,79.1,142.9,78.8,142.9,78.6Z" style="fill:#2dbc94"/><path d="M131.3,92.4l.6.3C131.2,92.8,131.2,92.8,131.3,92.4Zm.5,1-.3.4h-.1l.2-.4Z" style="fill:#3bbc92"/><path d="M144.2,77.3v.5h-.4Zm-1.3.8v.3h-.4Zm-10.1,15Zm.1.3h.4l-.3.2Zm.1,1.8V95h.3Z" style="fill:#2dbc94"/><path d="M142.6,77.7Z" style="fill:#39bd98"/><path d="M143.8,77.7l-.4.3h.4Z" style="fill:#2dbc94"/><path d="M143.6,77.7h-.3v-.2Z" style="fill:#44bc96"/><path d="M133.4,92.8c-.1,0-.1,0-.1.1h.1Zm.4.2.2-.2h-.2Z" style="fill:#2dbc94"/><path d="M133.6,93.9c0-.1,0-.1-.1-.1h.1c0,.1.1.1,0,.2S133.6,93.8,133.6,93.9Zm.2-.9Zm9.2-9.9Z" style="fill:#2dbc94"/><path d="M144.3,89.3h0Z" style="fill:#3bbc92"/><path d="M144.5,98.2h0c0,.1.1.1,0,.1Z" style="fill:#2f539f"/><path d="M143.9,84.4a.9.9,0,0,0-.1.5v-.2l-.6-.5h.6Z" style="fill:#19bc97"/><path d="M143.6,80.8c0,.1-.1.2-.1.3h-.2Q143.6,81,143.6,80.8Z" style="fill:#44bc96"/><path d="M143.8,83.8Z" style="fill:#19bc97"/><path d="M143.9,83.8Zm-.5,1.6h.5l-.4.7h-.1Z" style="fill:#19bc97"/><path d="M143.6,83.4h-.4l.2-.2A.2.2,0,0,1,143.6,83.4Z" style="fill:#2dbc94"/><path d="M133.2,96.9" style="fill:#19bc97"/></svg>